<?xml version="1.0" encoding="UTF-8" standalone="no"?>
<!-- Generator: Adobe Illustrator 16.0.0, SVG Export Plug-In . SVG Version: 6.00 Build 0)  -->

<svg
   version="1.1"
   id="Layer_1"
   x="0px"
   y="0px"
   width="130px"
   height="130px"
   viewBox="0 0 130 130"
   enable-background="new 0 0 130 130"
   xml:space="preserve"
   sodipodi:docname="cirque.svg"
   inkscape:version="1.2.2 (b0a8486, 2022-12-01)"
   xmlns:inkscape="http://www.inkscape.org/namespaces/inkscape"
   xmlns:sodipodi="http://sodipodi.sourceforge.net/DTD/sodipodi-0.dtd"
   xmlns="http://www.w3.org/2000/svg"
   xmlns:svg="http://www.w3.org/2000/svg"><defs
   id="defs1205" /><sodipodi:namedview
   id="namedview1203"
   pagecolor="#ffffff"
   bordercolor="#666666"
   borderopacity="1.0"
   inkscape:showpageshadow="2"
   inkscape:pageopacity="0.0"
   inkscape:pagecheckerboard="0"
   inkscape:deskcolor="#d1d1d1"
   showgrid="false"
   inkscape:zoom="6.7461538"
   inkscape:cx="65.518814"
   inkscape:cy="65.444698"
   inkscape:window-width="1234"
   inkscape:window-height="683"
   inkscape:window-x="827"
   inkscape:window-y="205"
   inkscape:window-maximized="0"
   inkscape:current-layer="Layer_1" />
<g
   id="g1200">
	<g
   id="g120">
		<g
   id="g114">
			<g
   id="g86">
				<polygon
   fill="#7C949B"
   points="45.057,56.235 44.144,55.71 45.057,55.181 45.97,55.71     "
   id="polygon72" />
				<polyline
   fill="#637E84"
   points="45.057,55.181 45.97,55.71 45.057,56.235     "
   id="polyline74" />
				<g
   id="g84">
					<polygon
   fill="#8CADB5"
   points="44.669,44.927 45.057,45.149 45.057,55.892 44.669,55.669      "
   id="polygon76" />
					<polygon
   fill="#7C949B"
   points="45.444,44.927 45.057,45.149 45.057,55.892 45.444,55.669      "
   id="polygon78" />
					<polygon
   fill="#7C949B"
   points="44.669,44.927 44.669,45.657 45.055,45.886 45.055,45.444 45.055,45.44 45.055,45.149      "
   id="polygon80" />
					<polygon
   fill="#547277"
   points="45.057,45.44 45.057,45.444 45.057,45.886 45.444,45.657 45.444,44.927 45.057,45.149      "
   id="polygon82" />
				</g>
			</g>
			<g
   id="g112">
				<g
   id="g92">
					<polyline
   fill="#444738"
   points="43.913,44.208 43.913,43.765 45.055,44.431      "
   id="polyline88" />
					<path
   fill="#A2CE02"
   d="M45.055,44.431"
   id="path90" />
				</g>
				<g
   id="g104">
					<polygon
   fill="#8CADB5"
   points="43.913,43.765 43.913,44.208 43.913,44.647 45.055,45.31 45.055,44.87 45.055,44.87        45.055,44.431      "
   id="polygon94" />
					<polyline
   fill="#779AA0"
   points="45.055,45.31 45.055,44.87 45.055,44.87 45.055,44.431 43.913,43.765      "
   id="polyline96" />
					<path
   fill="#C49427"
   d="M45.055,44.87"
   id="path98" />
					<polygon
   fill="#7C949B"
   points="45.057,44.431 45.057,44.87 45.057,44.87 45.057,45.31 46.198,44.647 46.198,44.208        46.198,43.765      "
   id="polygon100" />
					<polyline
   fill="#6B878E"
   points="46.198,44.208 46.198,43.765 45.057,44.431 45.057,44.87 45.057,44.87 45.057,45.31      "
   id="polyline102" />
				</g>
				<g
   id="g108">
					<path
   fill="#C49427"
   d="M45.055,45.31"
   id="path106" />
				</g>
				<polygon
   fill="#9EC6CC"
   points="43.913,43.765 45.055,44.431 45.514,44.163 46.199,43.765 45.057,43.106     "
   id="polygon110" />
			</g>
		</g>
		<polygon
   fill="#FF3F0B"
   points="44.861,45.405 44.861,50.437 38.645,50.437   "
   id="polygon116" />
		<polygon
   fill="#D33200"
   points="44.861,47.866 44.861,50.437 38.645,50.437   "
   id="polygon118" />
	</g>
	<g
   id="g170">
		<g
   id="g164">
			<g
   id="g136">
				<polygon
   fill="#7C949B"
   points="85.066,56.235 84.153,55.71 85.066,55.181 85.98,55.71     "
   id="polygon122" />
				<polyline
   fill="#637E84"
   points="85.066,55.181 85.98,55.71 85.066,56.235     "
   id="polyline124" />
				<g
   id="g134">
					<polygon
   fill="#8CADB5"
   points="84.68,44.927 85.066,45.149 85.066,55.892 84.68,55.669      "
   id="polygon126" />
					<polygon
   fill="#7C949B"
   points="85.454,44.927 85.066,45.149 85.066,55.892 85.454,55.669      "
   id="polygon128" />
					<polygon
   fill="#7C949B"
   points="84.68,44.927 84.68,45.657 85.065,45.886 85.065,45.444 85.065,45.44 85.065,45.149      "
   id="polygon130" />
					<polygon
   fill="#547277"
   points="85.066,45.44 85.066,45.444 85.066,45.886 85.454,45.657 85.454,44.927 85.066,45.149      "
   id="polygon132" />
				</g>
			</g>
			<g
   id="g162">
				<g
   id="g142">
					<polyline
   fill="#444738"
   points="83.924,44.208 83.924,43.765 85.065,44.431      "
   id="polyline138" />
					<path
   fill="#A2CE02"
   d="M85.065,44.431"
   id="path140" />
				</g>
				<g
   id="g154">
					<polygon
   fill="#8CADB5"
   points="83.924,43.765 83.924,44.208 83.924,44.647 85.065,45.31 85.065,44.87 85.065,44.87        85.065,44.431      "
   id="polygon144" />
					<polyline
   fill="#779AA0"
   points="85.065,45.31 85.065,44.87 85.065,44.87 85.065,44.431 83.924,43.765      "
   id="polyline146" />
					<path
   fill="#C49427"
   d="M85.065,44.87"
   id="path148" />
					<polygon
   fill="#7C949B"
   points="85.066,44.431 85.066,44.87 85.066,44.87 85.066,45.31 86.209,44.647 86.209,44.208        86.209,43.765      "
   id="polygon150" />
					<polyline
   fill="#6B878E"
   points="86.209,44.208 86.209,43.765 85.066,44.431 85.066,44.87 85.066,44.87 85.066,45.31      "
   id="polyline152" />
				</g>
				<g
   id="g158">
					<path
   fill="#C49427"
   d="M85.065,45.31"
   id="path156" />
				</g>
				<polygon
   fill="#9EC6CC"
   points="83.924,43.765 85.065,44.431 85.523,44.163 86.21,43.765 85.066,43.106     "
   id="polygon160" />
			</g>
		</g>
		<polygon
   fill="#FF3F0B"
   points="84.872,45.405 84.872,50.437 78.654,50.437   "
   id="polygon166" />
		<polygon
   fill="#D33200"
   points="84.872,47.866 84.872,50.437 78.654,50.437   "
   id="polygon168" />
	</g>
	<g
   id="g260">
		<g
   id="g180">
			<polygon
   fill="#F4A403"
   points="16.631,72.7 1.76,100.606 33.363,118.853 43.896,88.442    "
   id="polygon172" />
			<polyline
   fill="#F29106"
   points="33.363,118.853 43.896,88.442 16.631,72.7    "
   id="polyline174" />
			<polygon
   fill="#FFDA00"
   points="113.369,72.7 128.24,100.606 96.637,118.853 86.104,88.442    "
   id="polygon176" />
			<polyline
   fill="#F2C406"
   points="96.637,118.853 86.104,88.442 113.369,72.7    "
   id="polyline178" />
		</g>
		<polygon
   fill="#D12F2F"
   points="86.067,88.442 43.933,88.442 33.398,118.853 96.602,118.853   "
   id="polygon182" />
		<polyline
   fill="#BC2020"
   points="86.067,88.442 43.933,88.442 33.398,118.853   "
   id="polyline184" />
		<polygon
   fill="#BC2020"
   points="54.432,45.868 33.363,58.032 54.432,70.196 61.014,49.669   "
   id="polygon186" />
		<polyline
   fill="#9B1B1B"
   points="54.432,70.196 61.014,49.669 54.432,45.868   "
   id="polyline188" />
		<polygon
   fill="#EA2D2D"
   points="75.532,45.868 96.602,58.032 75.532,70.196 68.951,49.669   "
   id="polygon190" />
		<polyline
   fill="#D12F2F"
   points="75.532,70.196 68.951,49.669 75.532,45.868   "
   id="polyline192" />
		<polygon
   fill="#F2C406"
   points="68.951,49.669 61.014,49.669 54.432,70.196 75.532,70.196   "
   id="polygon194" />
		<polyline
   fill="#F4A403"
   points="68.951,49.669 61.014,49.669 54.432,70.196   "
   id="polyline196" />
		<polygon
   fill="#F4A403"
   points="54.432,45.868 61.014,49.669 64.982,26.862   "
   id="polygon198" />
		<polygon
   fill="#FFDA00"
   points="64.982,26.862 68.951,49.669 75.532,45.868   "
   id="polygon200" />
		<polygon
   fill="#F2C406"
   points="64.982,26.862 68.951,49.669 72.924,47.376   "
   id="polygon202" />
		<polygon
   fill="#D12F2F"
   points="64.982,26.862 61.014,49.669 68.951,49.669   "
   id="polygon204" />
		<polygon
   fill="#D36A6A"
   points="65,96.046 53.428,118.853 76.572,118.853   "
   id="polygon206" />
		<polygon
   fill="#E89797"
   points="65,96.046 58.75,118.853 71.25,118.853   "
   id="polygon208" />
		<polygon
   fill="#4F1212"
   points="65,96.046 61.031,118.853 68.969,118.853   "
   id="polygon210" />
		<polygon
   fill="#230909"
   points="65,96.046 64.527,118.853 68.969,118.853   "
   id="polygon212" />
		<polygon
   fill="#BC2020"
   points="64.982,26.862 61.014,49.669 64.982,49.669   "
   id="polygon214" />
		<polygon
   fill="#D12F2F"
   points="75.532,70.196 54.432,70.196 47.188,78.179 82.742,78.179   "
   id="polygon216" />
		<polyline
   fill="#BC2020"
   points="75.532,70.196 54.432,70.196 47.188,78.179   "
   id="polyline218" />
		<path
   fill="#D12F2F"
   d="M80.47,76.021"
   id="path220" />
		<polygon
   fill="#FFDA00"
   points="96.602,58.032 75.532,70.196 82.742,78.179 107.17,64.153   "
   id="polygon222" />
		<polyline
   fill="#F2C406"
   points="96.602,58.032 75.532,70.196 82.742,78.179   "
   id="polyline224" />
		<polygon
   fill="#F4A403"
   points="33.396,58.032 54.465,70.196 47.254,78.179 22.826,64.153   "
   id="polygon226" />
		<polyline
   fill="#F29106"
   points="33.396,58.032 54.465,70.196 47.254,78.179   "
   id="polyline228" />
		<polygon
   fill="#F2C406"
   points="82.742,78.179 47.254,78.179 43.933,88.442 86.067,88.442   "
   id="polygon230" />
		<polyline
   fill="#F4A403"
   points="82.742,78.179 47.254,78.179 43.933,88.442   "
   id="polyline232" />
		<polygon
   fill="#EA2D2D"
   points="107.17,64.153 82.742,78.179 86.067,88.442 113.369,72.7   "
   id="polygon234" />
		<polyline
   fill="#D12F2F"
   points="107.17,64.153 82.742,78.179 86.067,88.442   "
   id="polyline236" />
		<polygon
   fill="#BC2020"
   points="22.762,64.153 47.189,78.179 43.864,88.442 16.562,72.7   "
   id="polygon238" />
		<polyline
   fill="#9B1B1B"
   points="22.762,64.153 47.189,78.179 43.864,88.442   "
   id="polyline240" />
		<g
   id="g246">
			<line
   fill="#F4A403"
   x1="1.76"
   y1="100.606"
   x2="33.363"
   y2="118.853"
   id="line242" />
			<path
   fill="#7A6D6D"
   d="M33.363,119.614c-0.129,0-0.26-0.033-0.381-0.102L1.381,101.267c-0.364-0.211-0.489-0.678-0.278-1.039     c0.211-0.363,0.677-0.484,1.038-0.279l31.603,18.246c0.364,0.211,0.489,0.676,0.278,1.039     C33.881,119.478,33.625,119.614,33.363,119.614z"
   id="path244" />
		</g>
		<g
   id="g252">
			<line
   fill="#FFDA00"
   x1="128.24"
   y1="100.606"
   x2="96.637"
   y2="118.853"
   id="line248" />
			<path
   fill="#7A6D6D"
   d="M96.637,119.614c-0.262,0-0.518-0.137-0.658-0.381c-0.211-0.363-0.086-0.828,0.278-1.039l31.603-18.246     c0.359-0.209,0.828-0.086,1.038,0.279c0.211,0.361,0.086,0.828-0.278,1.039l-31.602,18.246     C96.896,119.581,96.766,119.614,96.637,119.614z"
   id="path250" />
		</g>
		<g
   id="g258">
			<line
   fill="#D12F2F"
   x1="33.398"
   y1="118.853"
   x2="96.602"
   y2="118.853"
   id="line254" />
			<path
   fill="#7A6D6D"
   d="M96.602,119.614H33.398c-0.42,0-0.76-0.342-0.76-0.762c0-0.418,0.34-0.76,0.76-0.76h63.203     c0.42,0,0.76,0.342,0.76,0.76C97.361,119.272,97.021,119.614,96.602,119.614z"
   id="path256" />
		</g>
	</g>
	<g
   id="g310">
		<polygon
   fill="#0EAA72"
   points="65.244,20.136 65.244,16.774 67.573,15.431 67.573,13.409 72.812,10.386 69.34,13.751     69.34,17.782   "
   id="polygon262" />
		<polygon
   fill="#078259"
   points="67.573,14.792 67.573,15.431 67.573,16.815 65.244,18.157 65.244,20.136 69.34,17.782     69.34,15.132 69.34,13.774   "
   id="polygon264" />
		<g
   id="g308">
			<g
   id="g280">
				<polygon
   fill="#7C949B"
   points="65.051,27.622 64.145,27.097 65.051,26.573 65.957,27.097     "
   id="polygon266" />
				<polyline
   fill="#637E84"
   points="65.051,26.573 65.957,27.097 65.051,27.622     "
   id="polyline268" />
				<g
   id="g278">
					<polygon
   fill="#8CADB5"
   points="64.664,16.394 65.051,16.618 65.051,27.28 64.664,27.056      "
   id="polygon270" />
					<polygon
   fill="#7C949B"
   points="65.436,16.394 65.051,16.618 65.051,27.28 65.436,27.056      "
   id="polygon272" />
					<polygon
   fill="#7C949B"
   points="64.664,16.394 64.664,17.12 65.049,17.343 65.049,16.907 65.049,16.907 65.049,16.616      "
   id="polygon274" />
					<polygon
   fill="#547277"
   points="65.051,16.907 65.051,16.907 65.051,17.343 65.436,17.12 65.436,16.394 65.051,16.616      "
   id="polygon276" />
				</g>
			</g>
			<g
   id="g306">
				<g
   id="g286">
					<polyline
   fill="#444738"
   points="63.916,15.683 63.916,15.241 65.049,15.897      "
   id="polyline282" />
					<path
   fill="#A2CE02"
   d="M65.049,15.897"
   id="path284" />
				</g>
				<g
   id="g298">
					<polygon
   fill="#8CADB5"
   points="63.916,15.241 63.916,15.683 63.916,16.114 65.049,16.774 65.049,16.333 65.049,16.333        65.049,15.897      "
   id="polygon288" />
					<polyline
   fill="#779AA0"
   points="65.049,16.774 65.049,16.333 65.049,16.333 65.049,15.897 63.916,15.241      "
   id="polyline290" />
					<path
   fill="#C49427"
   d="M65.049,16.333"
   id="path292" />
					<polygon
   fill="#7C949B"
   points="65.051,15.897 65.051,16.333 65.051,16.333 65.051,16.774 66.186,16.114 66.186,15.683        66.186,15.241      "
   id="polygon294" />
					<polyline
   fill="#6B878E"
   points="66.186,15.683 66.186,15.241 65.051,15.897 65.051,16.333 65.051,16.333 65.051,16.774             "
   id="polyline296" />
				</g>
				<g
   id="g302">
					<path
   fill="#C49427"
   d="M65.049,16.774"
   id="path300" />
				</g>
				<polygon
   fill="#9EC6CC"
   points="63.916,15.241 65.049,15.897 65.505,15.634 66.187,15.241 65.051,14.587     "
   id="polygon304" />
			</g>
		</g>
	</g>
	<g
   id="g360">
		<g
   id="g354">
			<g
   id="g326">
				<polygon
   fill="#7C949B"
   points="23.752,64.599 22.838,64.073 23.752,63.544 24.664,64.073     "
   id="polygon312" />
				<polyline
   fill="#637E84"
   points="23.752,63.544 24.664,64.073 23.752,64.599     "
   id="polyline314" />
				<g
   id="g324">
					<polygon
   fill="#8CADB5"
   points="23.363,53.29 23.752,53.513 23.752,64.255 23.363,64.032      "
   id="polygon316" />
					<polygon
   fill="#7C949B"
   points="24.139,53.29 23.752,53.513 23.752,64.255 24.139,64.032      "
   id="polygon318" />
					<polygon
   fill="#7C949B"
   points="23.363,53.29 23.363,54.021 23.75,54.249 23.75,53.806 23.75,53.804 23.75,53.513      "
   id="polygon320" />
					<polygon
   fill="#547277"
   points="23.752,53.804 23.752,53.806 23.752,54.249 24.139,54.021 24.139,53.29 23.752,53.513      "
   id="polygon322" />
				</g>
			</g>
			<g
   id="g352">
				<g
   id="g332">
					<polyline
   fill="#444738"
   points="22.607,52.571 22.607,52.128 23.75,52.794      "
   id="polyline328" />
					<path
   fill="#A2CE02"
   d="M23.75,52.794"
   id="path330" />
				</g>
				<g
   id="g344">
					<polygon
   fill="#8CADB5"
   points="22.607,52.128 22.607,52.571 22.607,53.011 23.75,53.673 23.75,53.233 23.75,53.233        23.75,52.794      "
   id="polygon334" />
					<polyline
   fill="#779AA0"
   points="23.75,53.673 23.75,53.233 23.75,53.233 23.75,52.794 22.607,52.128      "
   id="polyline336" />
					<path
   fill="#C49427"
   d="M23.75,53.233"
   id="path338" />
					<polygon
   fill="#7C949B"
   points="23.752,52.794 23.752,53.233 23.752,53.233 23.752,53.673 24.894,53.011 24.894,52.571        24.894,52.128      "
   id="polygon340" />
					<polyline
   fill="#6B878E"
   points="24.894,52.571 24.894,52.128 23.752,52.794 23.752,53.233 23.752,53.233 23.752,53.673             "
   id="polyline342" />
				</g>
				<g
   id="g348">
					<path
   fill="#C49427"
   d="M23.75,53.673"
   id="path346" />
				</g>
				<polygon
   fill="#9EC6CC"
   points="22.607,52.128 23.75,52.794 24.209,52.526 24.895,52.128 23.752,51.47     "
   id="polygon350" />
			</g>
		</g>
		<polygon
   fill="#FF3F0B"
   points="23.557,53.769 23.557,58.798 17.34,58.798   "
   id="polygon356" />
		<polygon
   fill="#D33200"
   points="23.557,56.229 23.557,58.798 17.34,58.798   "
   id="polygon358" />
	</g>
	<g
   id="g410">
		<g
   id="g404">
			<g
   id="g376">
				<polygon
   fill="#7C949B"
   points="106.147,64.599 105.234,64.073 106.147,63.544 107.061,64.073     "
   id="polygon362" />
				<polyline
   fill="#637E84"
   points="106.147,63.544 107.061,64.073 106.147,64.599     "
   id="polyline364" />
				<g
   id="g374">
					<polygon
   fill="#8CADB5"
   points="105.76,53.29 106.147,53.513 106.147,64.255 105.76,64.032      "
   id="polygon366" />
					<polygon
   fill="#7C949B"
   points="106.535,53.29 106.147,53.513 106.147,64.255 106.535,64.032      "
   id="polygon368" />
					<polygon
   fill="#7C949B"
   points="105.76,53.29 105.76,54.021 106.146,54.249 106.146,53.806 106.146,53.804 106.146,53.513             "
   id="polygon370" />
					<polygon
   fill="#547277"
   points="106.147,53.804 106.147,53.806 106.147,54.249 106.535,54.021 106.535,53.29 106.147,53.513             "
   id="polygon372" />
				</g>
			</g>
			<g
   id="g402">
				<g
   id="g382">
					<polyline
   fill="#444738"
   points="105.004,52.571 105.004,52.128 106.146,52.794      "
   id="polyline378" />
					<path
   fill="#A2CE02"
   d="M106.146,52.794"
   id="path380" />
				</g>
				<g
   id="g394">
					<polygon
   fill="#8CADB5"
   points="105.004,52.128 105.004,52.571 105.004,53.011 106.146,53.673 106.146,53.233 106.146,53.233        106.146,52.794      "
   id="polygon384" />
					<polyline
   fill="#779AA0"
   points="106.146,53.673 106.146,53.233 106.146,53.233 106.146,52.794 105.004,52.128      "
   id="polyline386" />
					<path
   fill="#C49427"
   d="M106.146,53.233"
   id="path388" />
					<polygon
   fill="#7C949B"
   points="106.147,52.794 106.147,53.233 106.147,53.233 106.147,53.673 107.289,53.011 107.289,52.571        107.289,52.128      "
   id="polygon390" />
					<polyline
   fill="#6B878E"
   points="107.289,52.571 107.289,52.128 106.147,52.794 106.147,53.233 106.147,53.233 106.147,53.673             "
   id="polyline392" />
				</g>
				<g
   id="g398">
					<path
   fill="#C49427"
   d="M106.146,53.673"
   id="path396" />
				</g>
				<polygon
   fill="#9EC6CC"
   points="105.004,52.128 106.146,52.794 106.605,52.526 107.291,52.128 106.147,51.47     "
   id="polygon400" />
			</g>
		</g>
		<polygon
   fill="#FF3F0B"
   points="105.953,53.769 105.953,58.798 99.736,58.798   "
   id="polygon406" />
		<polygon
   fill="#D33200"
   points="105.953,56.229 105.953,58.798 99.736,58.798   "
   id="polygon408" />
	</g>
	<g
   id="g460">
		<g
   id="g454">
			<g
   id="g426">
				<polygon
   fill="#7C949B"
   points="47.073,78.179 46.16,77.653 47.073,77.124 47.986,77.653     "
   id="polygon412" />
				<polyline
   fill="#637E84"
   points="47.073,77.124 47.986,77.653 47.073,78.179     "
   id="polyline414" />
				<g
   id="g424">
					<polygon
   fill="#8CADB5"
   points="46.686,66.87 47.073,67.093 47.073,77.835 46.686,77.612      "
   id="polygon416" />
					<polygon
   fill="#7C949B"
   points="47.461,66.87 47.073,67.093 47.073,77.835 47.461,77.612      "
   id="polygon418" />
					<polygon
   fill="#7C949B"
   points="46.686,66.87 46.686,67.601 47.072,67.829 47.072,67.388 47.072,67.384 47.072,67.093      "
   id="polygon420" />
					<polygon
   fill="#547277"
   points="47.073,67.384 47.073,67.388 47.073,67.829 47.461,67.601 47.461,66.87 47.073,67.093      "
   id="polygon422" />
				</g>
			</g>
			<g
   id="g452">
				<g
   id="g432">
					<polyline
   fill="#444738"
   points="45.93,66.151 45.93,65.71 47.072,66.374      "
   id="polyline428" />
					<path
   fill="#A2CE02"
   d="M47.072,66.374"
   id="path430" />
				</g>
				<g
   id="g444">
					<polygon
   fill="#8CADB5"
   points="45.93,65.71 45.93,66.151 45.93,66.591 47.072,67.253 47.072,66.813 47.072,66.813        47.072,66.374      "
   id="polygon434" />
					<polyline
   fill="#779AA0"
   points="47.072,67.253 47.072,66.813 47.072,66.813 47.072,66.374 45.93,65.71      "
   id="polyline436" />
					<path
   fill="#C49427"
   d="M47.072,66.813"
   id="path438" />
					<polygon
   fill="#7C949B"
   points="47.073,66.374 47.073,66.813 47.073,66.813 47.073,67.253 48.215,66.591 48.215,66.151        48.215,65.71      "
   id="polygon440" />
					<polyline
   fill="#6B878E"
   points="48.215,66.151 48.215,65.71 47.073,66.374 47.073,66.813 47.073,66.813 47.073,67.253             "
   id="polyline442" />
				</g>
				<g
   id="g448">
					<path
   fill="#C49427"
   d="M47.072,67.253"
   id="path446" />
				</g>
				<polygon
   fill="#9EC6CC"
   points="45.93,65.71 47.072,66.374 47.53,66.106 48.217,65.71 47.073,65.05     "
   id="polygon450" />
			</g>
		</g>
		<polygon
   fill="#FF3F0B"
   points="46.879,67.349 46.879,72.38 40.661,72.38   "
   id="polygon456" />
		<polygon
   fill="#D33200"
   points="46.879,69.81 46.879,72.38 40.661,72.38   "
   id="polygon458" />
	</g>
	<g
   id="g510">
		<g
   id="g504">
			<g
   id="g476">
				<polygon
   fill="#7C949B"
   points="82.434,78.179 81.521,77.653 82.434,77.124 83.348,77.653     "
   id="polygon462" />
				<polyline
   fill="#637E84"
   points="82.434,77.124 83.348,77.653 82.434,78.179     "
   id="polyline464" />
				<g
   id="g474">
					<polygon
   fill="#8CADB5"
   points="82.047,66.87 82.434,67.093 82.434,77.835 82.047,77.612      "
   id="polygon466" />
					<polygon
   fill="#7C949B"
   points="82.822,66.87 82.434,67.093 82.434,77.835 82.822,77.612      "
   id="polygon468" />
					<polygon
   fill="#7C949B"
   points="82.047,66.87 82.047,67.601 82.433,67.829 82.433,67.388 82.433,67.384 82.433,67.093      "
   id="polygon470" />
					<polygon
   fill="#547277"
   points="82.434,67.384 82.434,67.388 82.434,67.829 82.822,67.601 82.822,66.87 82.434,67.093      "
   id="polygon472" />
				</g>
			</g>
			<g
   id="g502">
				<g
   id="g482">
					<polyline
   fill="#444738"
   points="81.291,66.151 81.291,65.71 82.433,66.374      "
   id="polyline478" />
					<path
   fill="#A2CE02"
   d="M82.433,66.374"
   id="path480" />
				</g>
				<g
   id="g494">
					<polygon
   fill="#8CADB5"
   points="81.291,65.71 81.291,66.151 81.291,66.591 82.433,67.253 82.433,66.813 82.433,66.813        82.433,66.374      "
   id="polygon484" />
					<polyline
   fill="#779AA0"
   points="82.433,67.253 82.433,66.813 82.433,66.813 82.433,66.374 81.291,65.71      "
   id="polyline486" />
					<path
   fill="#C49427"
   d="M82.433,66.813"
   id="path488" />
					<polygon
   fill="#7C949B"
   points="82.434,66.374 82.434,66.813 82.434,66.813 82.434,67.253 83.576,66.591 83.576,66.151        83.576,65.71      "
   id="polygon490" />
					<polyline
   fill="#6B878E"
   points="83.576,66.151 83.576,65.71 82.434,66.374 82.434,66.813 82.434,66.813 82.434,67.253             "
   id="polyline492" />
				</g>
				<g
   id="g498">
					<path
   fill="#C49427"
   d="M82.433,67.253"
   id="path496" />
				</g>
				<polygon
   fill="#9EC6CC"
   points="81.291,65.71 82.433,66.374 82.891,66.106 83.577,65.71 82.434,65.05     "
   id="polygon500" />
			</g>
		</g>
		<polygon
   fill="#FF3F0B"
   points="82.239,67.349 82.239,72.38 76.022,72.38   "
   id="polygon506" />
		<polygon
   fill="#D33200"
   points="82.239,69.81 82.239,72.38 76.022,72.38   "
   id="polygon508" />
	</g>
	<g
   id="g854">
		<g
   id="g578">
			<circle
   opacity="0.4"
   fill="#FFC200"
   cx="92.505"
   cy="92.603"
   r="2.286"
   id="circle512" />
			<g
   id="g576">
				<g
   id="g520">
					<path
   fill="#FFA300"
   d="M93.523,92.208c0,0.6-0.482,1.088-1.08,1.088c-0.597,0-1.08-0.488-1.08-1.088       c0-0.596,0.483-1.443,1.08-1.443C93.041,90.765,93.523,91.612,93.523,92.208z"
   id="path514" />
					<path
   fill="#FFB600"
   d="M92.295,90.868c-0.197,0-0.294,0.051-0.48,0.232c-0.238,0.195-0.451,0.771-0.451,1.107       c0,0.6,0.483,1.088,1.08,1.088c0.197,0,0.383-0.061,0.541-0.148c0.238-0.199,0.392-0.496,0.392-0.83       C93.376,91.718,92.893,90.868,92.295,90.868z"
   id="path516" />
					<path
   fill="#FFC200"
   d="M91.814,91.101c-0.238,0.195-0.451,0.771-0.451,1.107c0,0.6,0.483,1.088,1.08,1.088       c0.197,0,0.383-0.061,0.541-0.148"
   id="path518" />
				</g>
				<path
   fill="#FFA300"
   d="M93.338,91.487c-0.193-0.393-0.521-0.723-0.895-0.723s-0.701,0.33-0.894,0.729      c0.043,0.08,0.12,0.16,0.233,0.223c0.363,0.213,0.961,0.213,1.322,0C93.217,91.653,93.295,91.573,93.338,91.487z"
   id="path522" />
				<g
   id="g560">
					<g
   id="g540">
						<path
   fill="#232B2A"
   d="M93.133,91.106h-1.38v0.113c0,0.006,0,0.006,0-0.021v0.012l0.001,0.027        c0.006,0.096,0.072,0.193,0.201,0.268c0.269,0.154,0.707,0.154,0.977,0c0.128-0.074,0.195-0.172,0.201-0.268V91.21V91.106z"
   id="path524" />
						<path
   d="M91.955,91.505c0.269,0.154,0.707,0.154,0.977,0c0.128-0.074,0.195-0.172,0.201-0.268V91.21v-0.104h-1.178V91.505z"
   id="path526" />
						<path
   fill="#2D3534"
   d="M92.932,90.831c-0.27-0.154-0.708-0.154-0.977,0c-0.271,0.154-0.271,0.412,0,0.566        c0.269,0.154,0.707,0.154,0.977,0S93.201,90.985,92.932,90.831z"
   id="path528" />
						<path
   fill="#C7D8D5"
   d="M92.932,90.831c-0.27-0.154-0.708-0.154-0.977,0"
   id="path530" />
						<path
   fill="#232B2A"
   d="M91.955,91.397c0.269,0.154,0.707,0.154,0.977,0s0.27-0.412,0-0.566"
   id="path532" />
						<path
   fill="#90AFAD"
   d="M92.861,90.868c-0.23-0.129-0.605-0.129-0.835,0c-0.229,0.137-0.229,0.357,0,0.488        c0.229,0.131,0.604,0.131,0.835,0C93.091,91.226,93.091,91.005,92.861,90.868z"
   id="path534" />
						<path
   fill="#7A9E9A"
   d="M92.836,90.907c-0.216-0.127-0.568-0.127-0.785,0c-0.217,0.129-0.217,0.33,0,0.455        s0.569,0.125,0.785,0C93.053,91.237,93.053,91.036,92.836,90.907z"
   id="path536" />
						<path
   fill="#6A918B"
   d="M92.051,91.362c0.217,0.125,0.569,0.125,0.785,0c0.217-0.125,0.217-0.326,0-0.455"
   id="path538" />
					</g>
					<g
   id="g558">
						<path
   fill="#232B2A"
   d="M93.043,91.011h-1.197v0.102c0,0,0,0,0-0.018v0.006v0.023c0.006,0.08,0.063,0.172,0.174,0.232        c0.232,0.137,0.615,0.137,0.849,0c0.11-0.061,0.171-0.152,0.174-0.232l0.001-0.023V91.011z"
   id="path542" />
						<path
   d="M92.02,91.356c0.232,0.137,0.615,0.137,0.849,0c0.11-0.061,0.171-0.152,0.174-0.232l0.001-0.023v-0.09H92.02V91.356z"
   id="path544" />
						<path
   fill="#2D3534"
   d="M92.868,90.774c-0.233-0.137-0.616-0.137-0.849,0c-0.234,0.139-0.234,0.359,0,0.49        c0.232,0.139,0.615,0.139,0.849,0C93.1,91.134,93.1,90.913,92.868,90.774z"
   id="path546" />
						<path
   fill="#414C4A"
   d="M92.868,90.774c-0.233-0.137-0.616-0.137-0.849,0"
   id="path548" />
						<path
   fill="#232B2A"
   d="M92.02,91.265c0.232,0.139,0.615,0.139,0.849,0c0.231-0.131,0.231-0.352,0-0.49"
   id="path550" />
						<path
   d="M92.805,90.81c-0.199-0.113-0.523-0.113-0.724,0c-0.198,0.119-0.198,0.307,0,0.422c0.2,0.113,0.524,0.113,0.724,0        C93.005,91.116,93.005,90.929,92.805,90.81z"
   id="path552" />
						<path
   fill="#2B3332"
   d="M92.785,90.839c-0.188-0.107-0.494-0.107-0.682,0s-0.188,0.285,0,0.398        c0.188,0.107,0.494,0.107,0.682,0C92.971,91.124,92.971,90.946,92.785,90.839z"
   id="path554" />
						<path
   fill="#232B2A"
   d="M92.104,91.237c0.188,0.107,0.494,0.107,0.682,0c0.186-0.113,0.186-0.291,0-0.398"
   id="path556" />
					</g>
				</g>
				<g
   id="g574">
					<path
   fill="#A4BCBB"
   d="M92.939,90.046h-0.99v0.797v0.006v0.008l0,0c0.006,0.072,0.055,0.137,0.146,0.191       c0.19,0.111,0.508,0.111,0.7,0c0.09-0.055,0.137-0.119,0.143-0.191h0.002V90.046z"
   id="path562" />
					<path
   fill="#74918E"
   d="M91.994,90.917v0.002v0.021h0.001c0,0.006,0.003,0.018,0.006,0.033       c0.024,0.031,0.056,0.051,0.094,0.074c0.19,0.111,0.508,0.111,0.7,0c0.09-0.055,0.137-0.119,0.143-0.191h0.002v-0.811h-0.945       V90.917z"
   id="path564" />
					<path
   fill="#526D6A"
   d="M92.057,90.979c0,0,0,0.002,0,0.006v0.02l0,0c0.001,0.006,0.001,0.012,0.001,0.02       c0.012,0.006,0.023,0.014,0.037,0.023c0.19,0.111,0.508,0.111,0.7,0c0.09-0.055,0.137-0.119,0.143-0.191h0.002v-0.811h-0.883       V90.979z"
   id="path566" />
					<path
   fill="#3C5652"
   d="M92.436,91.077v0.006v0.023l0,0c0,0,0.002,0.016,0.002,0.021c0.003,0,0.003,0.006,0.004,0.006       c0.13,0,0.256-0.033,0.354-0.086c0.09-0.055,0.137-0.119,0.143-0.191h0.002v-0.811h-0.504V91.077z"
   id="path568" />
					<path
   fill="#BCCECC"
   d="M92.795,89.827c-0.192-0.117-0.51-0.117-0.7,0c-0.194,0.109-0.194,0.293,0,0.406       c0.163,0.092,0.419,0.107,0.608,0.039c0.033-0.012,0.062-0.027,0.092-0.039C92.986,90.12,92.986,89.937,92.795,89.827z"
   id="path570" />
					<path
   fill="#A4BCBB"
   d="M92.095,90.233c0.163,0.092,0.419,0.107,0.608,0.039c0.033-0.012,0.062-0.027,0.092-0.039       c0.191-0.113,0.191-0.297,0-0.406"
   id="path572" />
				</g>
			</g>
		</g>
		<g
   id="g646">
			<path
   opacity="0.4"
   fill="#FFC200"
   d="M99.361,92.366c0,1.266-1.023,2.287-2.283,2.287c-1.262,0-2.287-1.021-2.287-2.287     c0-1.26,1.025-2.287,2.287-2.287C98.338,90.079,99.361,91.106,99.361,92.366z"
   id="path580" />
			<g
   id="g644">
				<g
   id="g588">
					<path
   fill="#FFA300"
   d="M98.096,91.974c0,0.604-0.483,1.082-1.08,1.082c-0.598,0-1.081-0.479-1.081-1.082       c0-0.594,0.483-1.443,1.081-1.443C97.612,90.53,98.096,91.38,98.096,91.974z"
   id="path582" />
					<path
   fill="#FFB600"
   d="M96.865,90.634c-0.195,0-0.291,0.055-0.479,0.234c-0.237,0.199-0.451,0.779-0.451,1.105       c0,0.604,0.483,1.082,1.081,1.082c0.197,0,0.383-0.045,0.541-0.143c0.24-0.197,0.391-0.5,0.391-0.836       C97.947,91.483,97.464,90.634,96.865,90.634z"
   id="path584" />
					<path
   fill="#FFC200"
   d="M96.386,90.868c-0.237,0.199-0.451,0.779-0.451,1.105c0,0.604,0.483,1.082,1.081,1.082       c0.197,0,0.383-0.045,0.541-0.143"
   id="path586" />
				</g>
				<path
   fill="#FFA300"
   d="M97.91,91.255c-0.193-0.398-0.521-0.725-0.895-0.725s-0.701,0.332-0.895,0.725      c0.041,0.084,0.119,0.164,0.232,0.229c0.363,0.215,0.959,0.215,1.324,0C97.791,91.419,97.867,91.339,97.91,91.255z"
   id="path590" />
				<g
   id="g628">
					<g
   id="g608">
						<path
   fill="#232B2A"
   d="M97.707,90.868h-1.382v0.117c0,0,0,0,0-0.027v0.021v0.025c0.007,0.096,0.074,0.193,0.202,0.268        c0.268,0.154,0.708,0.154,0.977,0c0.129-0.074,0.193-0.172,0.201-0.268l0.002-0.025V90.868z"
   id="path592" />
						<path
   d="M96.527,91.272c0.268,0.154,0.708,0.154,0.977,0c0.129-0.074,0.193-0.172,0.201-0.268l0.002-0.025v-0.111h-1.18        V91.272z"
   id="path594" />
						<path
   fill="#2D3534"
   d="M97.504,90.597c-0.269-0.148-0.709-0.148-0.977,0c-0.27,0.156-0.27,0.414,0,0.568        c0.268,0.156,0.708,0.156,0.977,0C97.773,91.011,97.773,90.753,97.504,90.597z"
   id="path596" />
						<path
   fill="#C7D8D5"
   d="M97.504,90.597c-0.269-0.148-0.709-0.148-0.977,0"
   id="path598" />
						<path
   fill="#232B2A"
   d="M96.527,91.165c0.268,0.156,0.708,0.156,0.977,0c0.27-0.154,0.27-0.412,0-0.568"
   id="path600" />
						<path
   fill="#90AFAD"
   d="M97.433,90.638c-0.229-0.131-0.605-0.131-0.835,0c-0.229,0.137-0.229,0.354,0,0.486        c0.229,0.131,0.605,0.131,0.835,0C97.663,90.991,97.663,90.774,97.433,90.638z"
   id="path602" />
						<path
   fill="#7A9E9A"
   d="M97.408,90.677c-0.216-0.123-0.568-0.123-0.785,0c-0.215,0.121-0.215,0.328,0,0.451        c0.217,0.127,0.569,0.127,0.785,0C97.623,91.005,97.623,90.798,97.408,90.677z"
   id="path604" />
						<path
   fill="#6A918B"
   d="M96.623,91.128c0.217,0.127,0.569,0.127,0.785,0c0.215-0.123,0.215-0.33,0-0.451"
   id="path606" />
					</g>
					<g
   id="g626">
						<path
   fill="#232B2A"
   d="M97.613,90.776h-1.197v0.105c0,0,0,0,0-0.025v0.012l0.001,0.025c0.005,0.08,0.063,0.166,0.174,0.23        c0.235,0.137,0.616,0.137,0.848,0c0.112-0.064,0.169-0.15,0.175-0.23v-0.025V90.776z"
   id="path610" />
						<path
   d="M96.591,91.124c0.235,0.137,0.616,0.137,0.848,0c0.112-0.064,0.169-0.15,0.175-0.23v-0.025v-0.092h-1.022V91.124z"
   id="path612" />
						<path
   fill="#2D3534"
   d="M97.438,90.542c-0.231-0.137-0.612-0.137-0.848,0c-0.233,0.135-0.233,0.354,0,0.488        c0.235,0.135,0.616,0.135,0.848,0C97.675,90.896,97.675,90.677,97.438,90.542z"
   id="path614" />
						<path
   fill="#414C4A"
   d="M97.438,90.542c-0.231-0.137-0.612-0.137-0.848,0"
   id="path616" />
						<path
   fill="#232B2A"
   d="M96.591,91.03c0.235,0.135,0.616,0.135,0.848,0c0.236-0.135,0.236-0.354,0-0.488"
   id="path618" />
						<path
   d="M97.378,90.577c-0.2-0.111-0.526-0.111-0.724,0c-0.2,0.113-0.2,0.305,0,0.416c0.197,0.119,0.523,0.119,0.724,0        C97.578,90.882,97.578,90.69,97.378,90.577z"
   id="path620" />
						<path
   fill="#2B3332"
   d="M97.355,90.61c-0.188-0.109-0.494-0.109-0.682,0c-0.188,0.104-0.188,0.283,0,0.395        c0.188,0.105,0.494,0.105,0.682,0C97.543,90.894,97.543,90.714,97.355,90.61z"
   id="path622" />
						<path
   fill="#232B2A"
   d="M96.674,91.005c0.188,0.105,0.494,0.105,0.682,0c0.188-0.111,0.188-0.291,0-0.395"
   id="path624" />
					</g>
				</g>
				<g
   id="g642">
					<path
   fill="#A4BCBB"
   d="M97.51,89.815h-0.99v0.795l0,0v0.016h0.002c0.006,0.064,0.053,0.137,0.143,0.189       c0.193,0.109,0.51,0.109,0.702,0c0.092-0.053,0.138-0.125,0.144-0.189l0,0V89.815z"
   id="path630" />
					<path
   fill="#74918E"
   d="M96.565,90.685v0.004V90.7l0,0c0.003,0.014,0.005,0.025,0.009,0.039       c0.022,0.025,0.054,0.053,0.09,0.076c0.193,0.109,0.51,0.109,0.702,0c0.092-0.053,0.138-0.125,0.144-0.189l0,0v-0.811h-0.944       V90.685z"
   id="path632" />
					<path
   fill="#526D6A"
   d="M96.625,90.747v0.004v0.023h0.003c0,0,0.001,0.006,0.001,0.018c0.012,0.006,0.024,0.012,0.035,0.023       c0.193,0.109,0.51,0.109,0.702,0c0.092-0.053,0.138-0.125,0.144-0.189l0,0v-0.811h-0.885V90.747z"
   id="path634" />
					<path
   fill="#3C5652"
   d="M97.007,90.839v0.01v0.02h0.001c0,0.014,0.002,0.02,0.002,0.027c0.003,0,0.003,0,0.003,0       c0.129,0,0.259-0.027,0.354-0.08c0.092-0.053,0.138-0.125,0.144-0.189l0,0v-0.811h-0.503V90.839z"
   id="path636" />
					<path
   fill="#BCCECC"
   d="M97.366,89.593c-0.192-0.113-0.509-0.113-0.702,0c-0.19,0.111-0.19,0.293,0,0.408       c0.164,0.09,0.42,0.105,0.613,0.039c0.032-0.012,0.061-0.025,0.089-0.039C97.561,89.886,97.561,89.704,97.366,89.593z"
   id="path638" />
					<path
   fill="#A4BCBB"
   d="M96.664,90.001c0.164,0.09,0.42,0.105,0.613,0.039c0.032-0.012,0.061-0.025,0.089-0.039       c0.194-0.115,0.194-0.297,0-0.408"
   id="path640" />
				</g>
			</g>
		</g>
		<g
   id="g714">
			<path
   opacity="0.4"
   fill="#FFC200"
   d="M104.275,90.194c0,1.264-1.023,2.291-2.285,2.291c-1.264,0-2.287-1.027-2.287-2.291     c0-1.258,1.023-2.283,2.287-2.283C103.252,87.911,104.275,88.937,104.275,90.194z"
   id="path648" />
			<g
   id="g712">
				<g
   id="g656">
					<path
   fill="#FFA300"
   d="M103.007,89.81c0,0.596-0.482,1.078-1.079,1.078c-0.598,0-1.081-0.482-1.081-1.078       c0-0.598,0.483-1.449,1.081-1.449C102.524,88.36,103.007,89.212,103.007,89.81z"
   id="path650" />
					<path
   fill="#FFB600"
   d="M101.779,88.464c-0.197,0-0.295,0.051-0.481,0.23c-0.237,0.199-0.451,0.779-0.451,1.115       c0,0.596,0.483,1.078,1.081,1.078c0.197,0,0.381-0.051,0.54-0.148c0.239-0.193,0.392-0.494,0.392-0.83       C102.859,89.313,102.376,88.464,101.779,88.464z"
   id="path652" />
					<path
   fill="#FFC200"
   d="M101.298,88.694c-0.237,0.199-0.451,0.779-0.451,1.115c0,0.596,0.483,1.078,1.081,1.078       c0.197,0,0.381-0.051,0.54-0.148"
   id="path654" />
				</g>
				<path
   fill="#FFA300"
   d="M102.821,89.087c-0.192-0.398-0.522-0.727-0.894-0.727c-0.373,0-0.701,0.334-0.896,0.727      c0.044,0.08,0.122,0.16,0.234,0.227c0.364,0.207,0.958,0.207,1.321,0C102.704,89.247,102.778,89.167,102.821,89.087z"
   id="path658" />
				<g
   id="g696">
					<g
   id="g676">
						<path
   fill="#232B2A"
   d="M102.617,88.7h-1.381v0.117c0,0,0,0,0-0.023v0.014l0.002,0.023c0.005,0.096,0.071,0.197,0.201,0.271        c0.269,0.154,0.707,0.154,0.977,0c0.128-0.074,0.194-0.176,0.201-0.271v-0.023V88.7z"
   id="path660" />
						<path
   d="M101.439,89.103c0.269,0.154,0.707,0.154,0.977,0c0.128-0.074,0.194-0.176,0.201-0.271v-0.023V88.7h-1.178V89.103z"
   id="path662" />
						<path
   fill="#2D3534"
   d="M102.416,88.429c-0.27-0.154-0.708-0.154-0.977,0c-0.271,0.154-0.271,0.408,0,0.57        c0.269,0.154,0.707,0.154,0.977,0C102.685,88.837,102.685,88.583,102.416,88.429z"
   id="path664" />
						<path
   fill="#C7D8D5"
   d="M102.416,88.429c-0.27-0.154-0.708-0.154-0.977,0"
   id="path666" />
						<path
   fill="#232B2A"
   d="M101.439,88.999c0.269,0.154,0.707,0.154,0.977,0c0.269-0.162,0.269-0.416,0-0.57"
   id="path668" />
						<path
   fill="#90AFAD"
   d="M102.345,88.47c-0.229-0.137-0.604-0.137-0.835,0c-0.229,0.133-0.229,0.35,0,0.484        c0.23,0.133,0.605,0.133,0.835,0C102.574,88.819,102.574,88.603,102.345,88.47z"
   id="path670" />
						<path
   fill="#7A9E9A"
   d="M102.319,88.505c-0.217-0.125-0.568-0.125-0.785,0s-0.217,0.326,0,0.455        c0.217,0.121,0.568,0.121,0.785,0C102.536,88.831,102.536,88.63,102.319,88.505z"
   id="path672" />
						<path
   fill="#6A918B"
   d="M101.534,88.96c0.217,0.121,0.568,0.121,0.785,0c0.217-0.129,0.217-0.33,0-0.455"
   id="path674" />
					</g>
					<g
   id="g694">
						<path
   fill="#232B2A"
   d="M102.527,88.603h-1.198v0.105c0,0,0,0,0-0.02v0.006v0.025c0.006,0.086,0.062,0.168,0.174,0.234        c0.233,0.137,0.614,0.137,0.849,0c0.11-0.066,0.17-0.148,0.174-0.234l0.002-0.025V88.603z"
   id="path678" />
						<path
   d="M101.503,88.954c0.233,0.137,0.614,0.137,0.849,0c0.11-0.066,0.17-0.148,0.174-0.234l0.002-0.025v-0.092h-1.024        V88.954z"
   id="path680" />
						<path
   fill="#2D3534"
   d="M102.352,88.372c-0.234-0.135-0.615-0.135-0.849,0c-0.233,0.133-0.233,0.355,0,0.49        c0.233,0.137,0.614,0.137,0.849,0C102.584,88.728,102.584,88.505,102.352,88.372z"
   id="path682" />
						<path
   fill="#414C4A"
   d="M102.352,88.372c-0.234-0.135-0.615-0.135-0.849,0"
   id="path684" />
						<path
   fill="#232B2A"
   d="M101.503,88.862c0.233,0.137,0.614,0.137,0.849,0c0.232-0.135,0.232-0.357,0-0.49"
   id="path686" />
						<path
   d="M102.289,88.409c-0.199-0.115-0.523-0.115-0.724,0c-0.199,0.113-0.199,0.299,0,0.414c0.2,0.115,0.524,0.115,0.724,0        S102.488,88.522,102.289,88.409z"
   id="path688" />
						<path
   fill="#2B3332"
   d="M102.27,88.437c-0.189-0.104-0.495-0.104-0.682,0c-0.188,0.109-0.188,0.285,0,0.395        c0.187,0.107,0.492,0.107,0.682,0C102.455,88.722,102.455,88.546,102.27,88.437z"
   id="path690" />
						<path
   fill="#232B2A"
   d="M101.588,88.831c0.187,0.107,0.492,0.107,0.682,0c0.186-0.109,0.186-0.285,0-0.395"
   id="path692" />
					</g>
				</g>
				<g
   id="g710">
					<path
   fill="#A4BCBB"
   d="M102.424,87.642h-0.99v0.799l0,0v0.018l0,0c0.006,0.064,0.055,0.133,0.145,0.184       c0.19,0.113,0.508,0.113,0.701,0c0.09-0.051,0.137-0.119,0.143-0.184h0.002V87.642z"
   id="path698" />
					<path
   fill="#74918E"
   d="M101.478,88.515v0.002v0.012h0.001c0,0.018,0.005,0.029,0.006,0.045       c0.025,0.021,0.055,0.045,0.094,0.068c0.19,0.113,0.508,0.113,0.701,0c0.09-0.051,0.137-0.119,0.143-0.184h0.002v-0.816h-0.946       V88.515z"
   id="path700" />
					<path
   fill="#526D6A"
   d="M101.539,88.577v0.002v0.021l0,0c0.001,0.002,0.001,0.012,0.001,0.018       c0.013,0.012,0.025,0.018,0.038,0.023c0.19,0.113,0.508,0.113,0.701,0c0.09-0.051,0.137-0.119,0.143-0.184h0.002v-0.816h-0.885       V88.577z"
   id="path702" />
					<path
   fill="#3C5652"
   d="M101.92,88.669c-0.002,0.002-0.002,0.008,0,0.008V88.7l0,0c0,0.008,0.002,0.02,0.004,0.027       c0,0,0,0,0.002,0c0.129,0,0.254-0.033,0.354-0.086c0.09-0.051,0.137-0.119,0.143-0.184h0.002v-0.816h-0.504V88.669z"
   id="path704" />
					<path
   fill="#BCCECC"
   d="M102.279,87.421c-0.193-0.109-0.511-0.109-0.701,0c-0.195,0.115-0.195,0.295,0,0.406       c0.164,0.09,0.419,0.107,0.607,0.043c0.035-0.012,0.064-0.029,0.094-0.043C102.471,87.716,102.471,87.536,102.279,87.421z"
   id="path706" />
					<path
   fill="#A4BCBB"
   d="M101.578,87.827c0.164,0.09,0.419,0.107,0.607,0.043c0.035-0.012,0.064-0.029,0.094-0.043       c0.191-0.111,0.191-0.291,0-0.406"
   id="path708" />
				</g>
			</g>
		</g>
		<g
   id="g782">
			<circle
   opacity="0.4"
   fill="#FFC200"
   cx="106.042"
   cy="86.931"
   r="2.286"
   id="circle716" />
			<g
   id="g780">
				<g
   id="g724">
					<path
   fill="#FFA300"
   d="M107.062,86.54c0,0.6-0.484,1.08-1.082,1.08s-1.082-0.48-1.082-1.08c0-0.596,0.484-1.443,1.082-1.443       S107.062,85.944,107.062,86.54z"
   id="path718" />
					<path
   fill="#FFB600"
   d="M105.831,85.196c-0.197,0-0.291,0.055-0.478,0.232c-0.239,0.199-0.455,0.777-0.455,1.111       c0,0.6,0.484,1.08,1.082,1.08c0.198,0,0.383-0.051,0.54-0.143c0.24-0.199,0.392-0.496,0.392-0.832       C106.912,86.052,106.428,85.196,105.831,85.196z"
   id="path720" />
					<path
   fill="#FFC200"
   d="M105.354,85.429c-0.239,0.199-0.455,0.777-0.455,1.111c0,0.6,0.484,1.08,1.082,1.08       c0.198,0,0.383-0.051,0.54-0.143"
   id="path722" />
				</g>
				<path
   fill="#FFA300"
   d="M106.873,85.815c-0.193-0.393-0.521-0.719-0.893-0.719c-0.373,0-0.699,0.332-0.896,0.719      c0.045,0.088,0.122,0.166,0.236,0.23c0.362,0.209,0.958,0.209,1.32,0C106.756,85.981,106.834,85.903,106.873,85.815z"
   id="path726" />
				<g
   id="g764">
					<g
   id="g744">
						<path
   fill="#232B2A"
   d="M106.672,85.435h-1.383v0.115c0,0.004,0,0.004,0-0.02v0.012l0.002,0.023        c0.006,0.094,0.07,0.193,0.2,0.27c0.269,0.154,0.71,0.154,0.979,0c0.129-0.076,0.193-0.176,0.199-0.27l0.002-0.023V85.435z"
   id="path728" />
						<path
   d="M105.491,85.835c0.269,0.154,0.71,0.154,0.979,0c0.129-0.076,0.193-0.176,0.199-0.27l0.002-0.023v-0.107h-1.181        V85.835z"
   id="path730" />
						<path
   fill="#2D3534"
   d="M106.471,85.161c-0.27-0.154-0.711-0.154-0.979,0c-0.271,0.154-0.271,0.41,0,0.564        c0.269,0.154,0.71,0.154,0.979,0C106.738,85.571,106.738,85.315,106.471,85.161z"
   id="path732" />
						<path
   fill="#C7D8D5"
   d="M106.471,85.161c-0.27-0.154-0.711-0.154-0.979,0"
   id="path734" />
						<path
   fill="#232B2A"
   d="M105.491,85.726c0.269,0.154,0.71,0.154,0.979,0c0.268-0.154,0.268-0.41,0-0.564"
   id="path736" />
						<path
   fill="#90AFAD"
   d="M106.398,85.202c-0.23-0.131-0.605-0.131-0.836,0c-0.229,0.135-0.229,0.352,0,0.482        c0.23,0.131,0.605,0.131,0.836,0C106.627,85.554,106.627,85.337,106.398,85.202z"
   id="path738" />
						<path
   fill="#7A9E9A"
   d="M106.371,85.239c-0.215-0.125-0.568-0.125-0.785,0c-0.213,0.123-0.213,0.326,0,0.453        c0.217,0.123,0.57,0.123,0.785,0C106.588,85.565,106.588,85.362,106.371,85.239z"
   id="path740" />
						<path
   fill="#6A918B"
   d="M105.586,85.692c0.217,0.123,0.57,0.123,0.785,0c0.217-0.127,0.217-0.33,0-0.453"
   id="path742" />
					</g>
					<g
   id="g762">
						<path
   fill="#232B2A"
   d="M106.581,85.339h-1.2v0.102c0,0,0,0,0-0.018v0.006v0.023c0.006,0.086,0.062,0.17,0.174,0.234        c0.234,0.137,0.617,0.137,0.85,0c0.113-0.064,0.17-0.148,0.174-0.234l0.003-0.023V85.339z"
   id="path746" />
						<path
   d="M105.555,85.687c0.234,0.137,0.617,0.137,0.85,0c0.113-0.064,0.17-0.148,0.174-0.234l0.003-0.023v-0.09h-1.026V85.687        z"
   id="path748" />
						<path
   fill="#2D3534"
   d="M106.404,85.104c-0.232-0.137-0.615-0.137-0.85,0c-0.232,0.135-0.232,0.357,0,0.49        c0.234,0.137,0.617,0.137,0.85,0C106.638,85.462,106.638,85.239,106.404,85.104z"
   id="path750" />
						<path
   fill="#414C4A"
   d="M106.404,85.104c-0.232-0.137-0.615-0.137-0.85,0"
   id="path752" />
						<path
   fill="#232B2A"
   d="M105.555,85.595c0.234,0.137,0.617,0.137,0.85,0c0.233-0.133,0.233-0.355,0-0.49"
   id="path754" />
						<path
   d="M106.342,85.144c-0.197-0.119-0.523-0.119-0.725,0c-0.197,0.113-0.197,0.303,0,0.416c0.201,0.113,0.527,0.113,0.725,0        C106.543,85.446,106.543,85.257,106.342,85.144z"
   id="path756" />
						<path
   fill="#2B3332"
   d="M106.321,85.171c-0.188-0.105-0.493-0.105-0.682,0c-0.188,0.109-0.188,0.281,0,0.395        c0.188,0.107,0.493,0.107,0.682,0C106.51,85.452,106.51,85.28,106.321,85.171z"
   id="path758" />
						<path
   fill="#232B2A"
   d="M105.64,85.565c0.188,0.107,0.493,0.107,0.682,0c0.188-0.113,0.188-0.285,0-0.395"
   id="path760" />
					</g>
				</g>
				<g
   id="g778">
					<path
   fill="#A4BCBB"
   d="M106.476,84.378h-0.991v0.795v0.006v0.006l0,0c0.007,0.074,0.056,0.141,0.145,0.189       c0.195,0.113,0.508,0.113,0.703,0c0.089-0.049,0.139-0.115,0.144-0.189l0,0V84.378z"
   id="path766" />
					<path
   fill="#74918E"
   d="M105.533,85.247v0.004v0.018l0,0c0.001,0.012,0.002,0.023,0.007,0.035       c0.022,0.029,0.051,0.053,0.089,0.07c0.195,0.113,0.508,0.113,0.703,0c0.089-0.049,0.139-0.115,0.144-0.189l0,0v-0.807h-0.942       V85.247z"
   id="path768" />
					<path
   fill="#526D6A"
   d="M105.591,85.31c0,0,0,0,0,0.006v0.018l0,0c0.001,0.006,0.001,0.016,0.003,0.018       c0.012,0.012,0.023,0.018,0.035,0.023c0.195,0.113,0.508,0.113,0.703,0c0.089-0.049,0.139-0.115,0.144-0.189l0,0v-0.807h-0.885       V85.31z"
   id="path770" />
					<path
   fill="#3C5652"
   d="M105.973,85.401c0,0.004,0,0.004,0,0.004v0.029l0,0c0.001,0.006,0.001,0.018,0.004,0.027       c0,0,0,0,0.002,0c0.129,0,0.256-0.033,0.354-0.088c0.089-0.049,0.139-0.115,0.144-0.189l0,0v-0.807h-0.503V85.401z"
   id="path772" />
					<path
   fill="#BCCECC"
   d="M106.332,84.157c-0.195-0.115-0.508-0.115-0.703,0c-0.192,0.107-0.192,0.295,0,0.398       c0.166,0.102,0.42,0.115,0.611,0.047c0.032-0.012,0.063-0.029,0.092-0.047C106.525,84.452,106.525,84.265,106.332,84.157z"
   id="path774" />
					<path
   fill="#A4BCBB"
   d="M105.629,84.556c0.166,0.102,0.42,0.115,0.611,0.047c0.032-0.012,0.063-0.029,0.092-0.047       c0.193-0.104,0.193-0.291,0-0.398"
   id="path776" />
				</g>
			</g>
		</g>
		<g
   id="g850">
			<circle
   opacity="0.4"
   fill="#FFC200"
   cx="109.041"
   cy="83.949"
   r="2.287"
   id="circle784" />
			<g
   id="g848">
				<g
   id="g792">
					<path
   fill="#FFA300"
   d="M109.998,83.427c0.08,0.594-0.332,1.141-0.922,1.217c-0.593,0.078-1.138-0.332-1.22-0.922       c-0.08-0.592,0.282-1.5,0.874-1.584C109.32,82.062,109.918,82.839,109.998,83.427z"
   id="path786" />
					<path
   fill="#FFB600"
   d="M108.596,82.263c-0.194,0.027-0.281,0.092-0.443,0.297c-0.208,0.229-0.34,0.832-0.296,1.162       c0.082,0.59,0.627,1,1.22,0.922c0.194-0.025,0.369-0.104,0.515-0.219c0.211-0.227,0.321-0.543,0.272-0.873       C109.784,82.958,109.188,82.185,108.596,82.263z"
   id="path788" />
					<path
   fill="#FFC200"
   d="M108.152,82.56c-0.208,0.229-0.34,0.832-0.296,1.162c0.082,0.59,0.627,1,1.22,0.922       c0.194-0.025,0.369-0.104,0.515-0.219"
   id="path790" />
				</g>
				<path
   fill="#FFA300"
   d="M109.715,82.737c-0.246-0.367-0.617-0.646-0.984-0.6c-0.369,0.053-0.649,0.426-0.787,0.844      c0.053,0.076,0.139,0.143,0.262,0.193c0.389,0.156,0.978,0.08,1.311-0.182C109.619,82.915,109.684,82.827,109.715,82.737z"
   id="path794" />
				<g
   id="g832">
					<g
   id="g812">
						<path
   fill="#232B2A"
   d="M109.462,82.378l-1.37,0.191l0.016,0.115c0,0,0,0-0.002-0.021l0.002,0.01l0.004,0.023        c0.019,0.098,0.099,0.188,0.234,0.246c0.287,0.115,0.725,0.057,0.969-0.137c0.117-0.092,0.17-0.199,0.164-0.291l-0.002-0.033        L109.462,82.378z"
   id="path796" />
						<path
   d="M108.346,82.942c0.287,0.115,0.725,0.057,0.969-0.137c0.117-0.092,0.17-0.199,0.164-0.291l-0.002-0.033l-0.015-0.104        l-1.169,0.164L108.346,82.942z"
   id="path798" />
						<path
   fill="#2D3534"
   d="M109.225,82.144c-0.289-0.119-0.724-0.059-0.969,0.131c-0.246,0.189-0.212,0.439,0.076,0.564        c0.288,0.109,0.725,0.053,0.969-0.137C109.548,82.509,109.514,82.257,109.225,82.144z"
   id="path800" />
						<path
   fill="#C7D8D5"
   d="M109.225,82.144c-0.289-0.119-0.724-0.059-0.969,0.131"
   id="path802" />
						<path
   fill="#232B2A"
   d="M108.332,82.839c0.288,0.109,0.725,0.053,0.969-0.137c0.247-0.193,0.213-0.445-0.076-0.559"
   id="path804" />
						<path
   fill="#90AFAD"
   d="M109.16,82.19c-0.246-0.094-0.617-0.047-0.828,0.113c-0.211,0.166-0.18,0.381,0.064,0.479        c0.248,0.102,0.618,0.051,0.829-0.109C109.432,82.507,109.405,82.29,109.16,82.19z"
   id="path806" />
						<path
   fill="#7A9E9A"
   d="M109.14,82.228c-0.231-0.092-0.582-0.043-0.778,0.113c-0.197,0.15-0.17,0.35,0.062,0.447        c0.23,0.09,0.579,0.045,0.777-0.109C109.396,82.524,109.371,82.321,109.14,82.228z"
   id="path808" />
						<path
   fill="#6A918B"
   d="M108.424,82.788c0.23,0.09,0.579,0.045,0.777-0.109c0.195-0.154,0.17-0.357-0.062-0.451"
   id="path810" />
					</g>
					<g
   id="g830">
						<path
   fill="#232B2A"
   d="M109.357,82.302l-1.186,0.162l0.012,0.105c0,0,0.001,0-0.002-0.021l0.002,0.012l0.004,0.021        c0.014,0.08,0.084,0.156,0.203,0.207c0.25,0.096,0.629,0.051,0.841-0.115c0.103-0.08,0.147-0.17,0.142-0.256l-0.002-0.023        L109.357,82.302z"
   id="path814" />
						<path
   d="M108.391,82.788c0.25,0.096,0.629,0.051,0.841-0.115c0.103-0.08,0.147-0.17,0.142-0.256l-0.002-0.023l-0.014-0.092        l-1.014,0.139L108.391,82.788z"
   id="path816" />
						<path
   fill="#2D3534"
   d="M109.152,82.097c-0.249-0.107-0.629-0.055-0.842,0.113c-0.212,0.166-0.184,0.383,0.067,0.48        c0.249,0.104,0.63,0.059,0.842-0.109C109.431,82.411,109.404,82.198,109.152,82.097z"
   id="path818" />
						<path
   fill="#414C4A"
   d="M109.152,82.097c-0.249-0.107-0.629-0.055-0.842,0.113"
   id="path820" />
						<path
   fill="#232B2A"
   d="M108.378,82.69c0.249,0.104,0.63,0.059,0.842-0.109c0.211-0.17,0.185-0.383-0.067-0.484"
   id="path822" />
						<path
   d="M109.096,82.136c-0.213-0.086-0.535-0.039-0.718,0.104c-0.183,0.137-0.155,0.324,0.056,0.41        c0.215,0.088,0.537,0.041,0.719-0.102C109.334,82.411,109.309,82.224,109.096,82.136z"
   id="path824" />
						<path
   fill="#2B3332"
   d="M109.078,82.173c-0.199-0.082-0.503-0.041-0.675,0.09c-0.171,0.131-0.147,0.309,0.052,0.389        c0.203,0.084,0.505,0.039,0.676-0.092C109.303,82.429,109.277,82.251,109.078,82.173z"
   id="path826" />
						<path
   fill="#232B2A"
   d="M108.455,82.651c0.203,0.084,0.505,0.039,0.676-0.092c0.172-0.131,0.146-0.309-0.053-0.387"
   id="path828" />
					</g>
				</g>
				<g
   id="g846">
					<path
   fill="#A4BCBB"
   d="M109.123,81.362l-0.98,0.137l0.107,0.787l0,0l0.003,0.012l0,0c0.015,0.068,0.073,0.131,0.169,0.172       c0.205,0.078,0.519,0.039,0.695-0.1c0.082-0.066,0.121-0.131,0.115-0.203l0,0L109.123,81.362z"
   id="path834" />
					<path
   fill="#74918E"
   d="M108.305,82.353c0,0.002,0,0.002,0.002,0.002l0.003,0.016l0,0c0.001,0.012,0.007,0.023,0.013,0.035       c0.027,0.023,0.059,0.047,0.1,0.064c0.205,0.078,0.519,0.039,0.695-0.1c0.082-0.066,0.121-0.131,0.115-0.203l0,0l-0.109-0.805       l-0.934,0.129L108.305,82.353z"
   id="path836" />
					<path
   fill="#526D6A"
   d="M108.375,82.405v0.006l0.002,0.018h0.001c0.003,0.006,0.003,0.016,0.005,0.023       c0.013,0.006,0.025,0.006,0.039,0.018c0.205,0.078,0.519,0.039,0.695-0.1c0.082-0.066,0.121-0.131,0.115-0.203l0,0       l-0.109-0.805l-0.875,0.119L108.375,82.405z"
   id="path838" />
					<path
   fill="#3C5652"
   d="M108.764,82.444c0,0,0,0.008,0.004,0.008l0.001,0.023l0,0c0.001,0.006,0.006,0.02,0.006,0.027       c0.001,0,0.001,0,0.005,0c0.125-0.021,0.248-0.062,0.338-0.133c0.082-0.066,0.121-0.131,0.115-0.203l0,0l-0.109-0.805       l-0.497,0.068L108.764,82.444z"
   id="path840" />
					<path
   fill="#BCCECC"
   d="M108.949,81.163c-0.206-0.082-0.517-0.041-0.695,0.096c-0.174,0.131-0.149,0.318,0.056,0.398       c0.177,0.076,0.433,0.053,0.612-0.041c0.031-0.02,0.059-0.037,0.084-0.051C109.183,81.425,109.158,81.247,108.949,81.163z"
   id="path842" />
					<path
   fill="#A4BCBB"
   d="M108.31,81.657c0.177,0.076,0.433,0.053,0.612-0.041c0.031-0.02,0.059-0.037,0.084-0.051       c0.177-0.141,0.152-0.318-0.057-0.402"
   id="path844" />
				</g>
			</g>
		</g>
		<path
   fill="#547277"
   d="M85.987,88.448c0,0,0.509,0.232,1.44,0.512c0.925,0.287,2.288,0.59,3.934,0.727    c0.822,0.074,1.719,0.074,2.659,0.006c0.942-0.053,1.92-0.242,2.917-0.469c0.997-0.238,1.99-0.605,2.977-1.039    c0.961-0.473,1.928-0.992,2.81-1.645c0.909-0.602,1.749-1.314,2.54-2.051c0.784-0.738,1.512-1.52,2.167-2.322    c0.346-0.383,0.637-0.801,0.941-1.189c0.306-0.396,0.608-0.781,0.867-1.174c0.267-0.398,0.528-0.781,0.779-1.152    c0.233-0.387,0.459-0.748,0.673-1.105c0.442-0.705,0.797-1.383,1.13-1.971c0.34-0.588,0.604-1.117,0.817-1.553    c0.439-0.867,0.693-1.369,0.693-1.369s-0.205,0.52-0.563,1.43c-0.179,0.453-0.405,1.004-0.7,1.613    c-0.289,0.621-0.595,1.328-1.014,2.053c-0.201,0.373-0.414,0.754-0.629,1.158c-0.24,0.379-0.487,0.781-0.738,1.188    c-0.244,0.422-0.533,0.82-0.824,1.242c-0.288,0.414-0.592,0.836-0.936,1.238c-0.656,0.822-1.391,1.641-2.188,2.414    c-0.804,0.771-1.657,1.518-2.596,2.158c-0.927,0.656-1.938,1.186-2.947,1.664c-1.029,0.436-2.07,0.805-3.112,1.035    c-1.038,0.232-2.062,0.369-3.035,0.387c-0.971,0.023-1.894-0.018-2.73-0.137c-1.68-0.205-3.023-0.652-3.938-1    C86.467,88.739,85.987,88.448,85.987,88.448z"
   id="path852" />
	</g>
	<g
   id="g1198">
		<g
   id="g922">
			<circle
   opacity="0.4"
   fill="#FFC200"
   cx="37.368"
   cy="92.603"
   r="2.286"
   id="circle856" />
			<g
   id="g920">
				<g
   id="g864">
					<path
   fill="#FFA300"
   d="M36.351,92.208c0,0.6,0.483,1.088,1.079,1.088c0.598,0,1.082-0.488,1.082-1.088       c0-0.596-0.484-1.443-1.082-1.443C36.834,90.765,36.351,91.612,36.351,92.208z"
   id="path858" />
					<path
   fill="#FFB600"
   d="M37.578,90.868c0.198,0,0.295,0.051,0.481,0.232c0.237,0.195,0.452,0.771,0.452,1.107       c0,0.6-0.484,1.088-1.082,1.088c-0.197,0-0.383-0.061-0.54-0.148c-0.239-0.199-0.392-0.496-0.392-0.83       C36.498,91.718,36.982,90.868,37.578,90.868z"
   id="path860" />
					<path
   fill="#FFC200"
   d="M38.06,91.101c0.237,0.195,0.452,0.771,0.452,1.107c0,0.6-0.484,1.088-1.082,1.088       c-0.197,0-0.383-0.061-0.54-0.148"
   id="path862" />
				</g>
				<path
   fill="#FFA300"
   d="M36.536,91.487c0.193-0.393,0.521-0.723,0.894-0.723c0.373,0,0.701,0.33,0.895,0.729      c-0.043,0.08-0.121,0.16-0.233,0.223c-0.364,0.213-0.96,0.213-1.323,0C36.656,91.653,36.58,91.573,36.536,91.487z"
   id="path866" />
				<g
   id="g904">
					<g
   id="g884">
						<path
   fill="#232B2A"
   d="M36.741,91.106h1.38v0.113c0,0.006,0,0.006,0-0.021v0.012l-0.002,0.027        c-0.004,0.096-0.071,0.193-0.2,0.268c-0.269,0.154-0.707,0.154-0.978,0c-0.127-0.074-0.194-0.172-0.2-0.268V91.21V91.106z"
   id="path868" />
						<path
   d="M37.919,91.505c-0.269,0.154-0.707,0.154-0.978,0c-0.127-0.074-0.194-0.172-0.2-0.268V91.21v-0.104h1.178V91.505z"
   id="path870" />
						<path
   fill="#2D3534"
   d="M36.941,90.831c0.271-0.154,0.709-0.154,0.978,0c0.271,0.154,0.271,0.412,0,0.566        c-0.269,0.154-0.707,0.154-0.978,0C36.673,91.243,36.673,90.985,36.941,90.831z"
   id="path872" />
						<path
   fill="#C7D8D5"
   d="M36.941,90.831c0.271-0.154,0.709-0.154,0.978,0"
   id="path874" />
						<path
   fill="#232B2A"
   d="M37.919,91.397c-0.269,0.154-0.707,0.154-0.978,0c-0.269-0.154-0.269-0.412,0-0.566"
   id="path876" />
						<path
   fill="#90AFAD"
   d="M37.014,90.868c0.229-0.129,0.604-0.129,0.834,0c0.229,0.137,0.229,0.357,0,0.488        c-0.23,0.131-0.604,0.131-0.834,0C36.783,91.226,36.783,91.005,37.014,90.868z"
   id="path878" />
						<path
   fill="#7A9E9A"
   d="M37.038,90.907c0.216-0.127,0.569-0.127,0.786,0c0.217,0.129,0.217,0.33,0,0.455s-0.57,0.125-0.786,0        C36.821,91.237,36.821,91.036,37.038,90.907z"
   id="path880" />
						<path
   fill="#6A918B"
   d="M37.824,91.362c-0.217,0.125-0.57,0.125-0.786,0c-0.217-0.125-0.217-0.326,0-0.455"
   id="path882" />
					</g>
					<g
   id="g902">
						<path
   fill="#232B2A"
   d="M36.83,91.011h1.199v0.102c0,0,0,0,0-0.018v0.006v0.023c-0.007,0.08-0.064,0.172-0.174,0.232        c-0.234,0.137-0.617,0.137-0.85,0c-0.11-0.061-0.171-0.152-0.174-0.232l-0.002-0.023V91.011z"
   id="path886" />
						<path
   d="M37.855,91.356c-0.234,0.137-0.617,0.137-0.85,0c-0.11-0.061-0.171-0.152-0.174-0.232l-0.002-0.023v-0.09h1.025        V91.356z"
   id="path888" />
						<path
   fill="#2D3534"
   d="M37.006,90.774c0.232-0.137,0.615-0.137,0.85,0c0.232,0.139,0.232,0.359,0,0.49        c-0.234,0.139-0.617,0.139-0.85,0C36.773,91.134,36.773,90.913,37.006,90.774z"
   id="path890" />
						<path
   fill="#414C4A"
   d="M37.006,90.774c0.232-0.137,0.615-0.137,0.85,0"
   id="path892" />
						<path
   fill="#232B2A"
   d="M37.855,91.265c-0.234,0.139-0.617,0.139-0.85,0c-0.232-0.131-0.232-0.352,0-0.49"
   id="path894" />
						<path
   d="M37.069,90.81c0.199-0.113,0.522-0.113,0.724,0c0.199,0.119,0.199,0.307,0,0.422c-0.201,0.113-0.524,0.113-0.724,0        C36.869,91.116,36.869,90.929,37.069,90.81z"
   id="path896" />
						<path
   fill="#2B3332"
   d="M37.089,90.839c0.187-0.107,0.494-0.107,0.681,0c0.188,0.107,0.188,0.285,0,0.398        c-0.187,0.107-0.494,0.107-0.681,0C36.903,91.124,36.903,90.946,37.089,90.839z"
   id="path898" />
						<path
   fill="#232B2A"
   d="M37.77,91.237c-0.187,0.107-0.494,0.107-0.681,0c-0.186-0.113-0.186-0.291,0-0.398"
   id="path900" />
					</g>
				</g>
				<g
   id="g918">
					<path
   fill="#A4BCBB"
   d="M36.934,90.046h0.991v0.797v0.006v0.008l0,0c-0.006,0.072-0.056,0.137-0.146,0.191       c-0.19,0.111-0.508,0.111-0.701,0c-0.089-0.055-0.137-0.119-0.143-0.191h-0.002V90.046z"
   id="path906" />
					<path
   fill="#74918E"
   d="M37.88,90.917v0.002v0.021h-0.001c0,0.006-0.004,0.018-0.006,0.033       c-0.023,0.031-0.055,0.051-0.094,0.074c-0.19,0.111-0.508,0.111-0.701,0c-0.089-0.055-0.137-0.119-0.143-0.191h-0.002v-0.811       h0.946V90.917z"
   id="path908" />
					<path
   fill="#526D6A"
   d="M37.818,90.979c0,0,0,0.002,0,0.006v0.02l0,0c-0.002,0.006-0.002,0.012-0.002,0.02       c-0.012,0.006-0.023,0.014-0.037,0.023c-0.19,0.111-0.508,0.111-0.701,0c-0.089-0.055-0.137-0.119-0.143-0.191h-0.002v-0.811       h0.885V90.979z"
   id="path910" />
					<path
   fill="#3C5652"
   d="M37.438,91.077c0.002,0,0.002,0.006,0,0.006v0.023l0,0c0,0-0.002,0.016-0.002,0.021       c-0.002,0-0.002,0.006-0.004,0.006c-0.129,0-0.256-0.033-0.354-0.086c-0.089-0.055-0.137-0.119-0.143-0.191h-0.002v-0.811       h0.504V91.077z"
   id="path912" />
					<path
   fill="#BCCECC"
   d="M37.078,89.827c0.193-0.117,0.511-0.117,0.701,0c0.194,0.109,0.194,0.293,0,0.406       c-0.164,0.092-0.419,0.107-0.609,0.039c-0.032-0.012-0.062-0.027-0.092-0.039C36.887,90.12,36.887,89.937,37.078,89.827z"
   id="path914" />
					<path
   fill="#A4BCBB"
   d="M37.779,90.233c-0.164,0.092-0.419,0.107-0.609,0.039c-0.032-0.012-0.062-0.027-0.092-0.039       c-0.191-0.113-0.191-0.297,0-0.406"
   id="path916" />
				</g>
			</g>
		</g>
		<g
   id="g990">
			<path
   opacity="0.4"
   fill="#FFC200"
   d="M30.512,92.366c0,1.266,1.023,2.287,2.284,2.287c1.263,0,2.286-1.021,2.286-2.287     c0-1.26-1.023-2.287-2.286-2.287C31.535,90.079,30.512,91.106,30.512,92.366z"
   id="path924" />
			<g
   id="g988">
				<g
   id="g932">
					<path
   fill="#FFA300"
   d="M31.779,91.974c0,0.604,0.482,1.082,1.079,1.082s1.081-0.479,1.081-1.082       c0-0.594-0.484-1.443-1.081-1.443S31.779,91.38,31.779,91.974z"
   id="path926" />
					<path
   fill="#FFB600"
   d="M33.008,90.634c0.196,0,0.291,0.055,0.48,0.234c0.237,0.199,0.451,0.779,0.451,1.105       c0,0.604-0.484,1.082-1.081,1.082c-0.198,0-0.384-0.045-0.54-0.143c-0.241-0.197-0.391-0.5-0.391-0.836       C31.928,91.483,32.41,90.634,33.008,90.634z"
   id="path928" />
					<path
   fill="#FFC200"
   d="M33.488,90.868c0.237,0.199,0.451,0.779,0.451,1.105c0,0.604-0.484,1.082-1.081,1.082       c-0.198,0-0.384-0.045-0.54-0.143"
   id="path930" />
				</g>
				<path
   fill="#FFA300"
   d="M31.965,91.255c0.192-0.398,0.521-0.725,0.894-0.725c0.372,0,0.7,0.332,0.894,0.725      c-0.04,0.084-0.119,0.164-0.231,0.229c-0.364,0.215-0.959,0.215-1.325,0C32.083,91.419,32.006,91.339,31.965,91.255z"
   id="path934" />
				<g
   id="g972">
					<g
   id="g952">
						<path
   fill="#232B2A"
   d="M32.166,90.868h1.383v0.117c0,0,0,0,0-0.027v0.021v0.025c-0.008,0.096-0.074,0.193-0.202,0.268        c-0.267,0.154-0.708,0.154-0.978,0c-0.129-0.074-0.192-0.172-0.199-0.268l-0.004-0.025V90.868z"
   id="path936" />
						<path
   d="M33.347,91.272c-0.267,0.154-0.708,0.154-0.978,0c-0.129-0.074-0.192-0.172-0.199-0.268l-0.004-0.025v-0.111h1.181        V91.272z"
   id="path938" />
						<path
   fill="#2D3534"
   d="M32.369,90.597c0.27-0.148,0.711-0.148,0.978,0c0.269,0.156,0.269,0.414,0,0.568        c-0.267,0.156-0.708,0.156-0.978,0C32.102,91.011,32.102,90.753,32.369,90.597z"
   id="path940" />
						<path
   fill="#C7D8D5"
   d="M32.369,90.597c0.27-0.148,0.711-0.148,0.978,0"
   id="path942" />
						<path
   fill="#232B2A"
   d="M33.347,91.165c-0.267,0.156-0.708,0.156-0.978,0c-0.268-0.154-0.268-0.412,0-0.568"
   id="path944" />
						<path
   fill="#90AFAD"
   d="M32.441,90.638c0.23-0.131,0.605-0.131,0.834,0c0.23,0.137,0.23,0.354,0,0.486        c-0.229,0.131-0.604,0.131-0.834,0C32.211,90.991,32.211,90.774,32.441,90.638z"
   id="path946" />
						<path
   fill="#7A9E9A"
   d="M32.467,90.677c0.215-0.123,0.566-0.123,0.783,0c0.216,0.121,0.216,0.328,0,0.451        c-0.217,0.127-0.568,0.127-0.783,0C32.251,91.005,32.251,90.798,32.467,90.677z"
   id="path948" />
						<path
   fill="#6A918B"
   d="M33.25,91.128c-0.217,0.127-0.568,0.127-0.783,0c-0.216-0.123-0.216-0.33,0-0.451"
   id="path950" />
					</g>
					<g
   id="g970">
						<path
   fill="#232B2A"
   d="M32.26,90.776h1.198v0.105c0,0,0,0,0-0.025v0.012l-0.001,0.025c-0.005,0.08-0.064,0.166-0.174,0.23        c-0.234,0.137-0.617,0.137-0.848,0c-0.111-0.064-0.17-0.15-0.176-0.23v-0.025V90.776z"
   id="path954" />
						<path
   d="M33.283,91.124c-0.234,0.137-0.617,0.137-0.848,0c-0.111-0.064-0.17-0.15-0.176-0.23v-0.025v-0.092h1.023V91.124z"
   id="path956" />
						<path
   fill="#2D3534"
   d="M32.436,90.542c0.23-0.137,0.613-0.137,0.848,0c0.232,0.135,0.232,0.354,0,0.488        c-0.234,0.135-0.617,0.135-0.848,0C32.199,90.896,32.199,90.677,32.436,90.542z"
   id="path958" />
						<path
   fill="#414C4A"
   d="M32.436,90.542c0.23-0.137,0.613-0.137,0.848,0"
   id="path960" />
						<path
   fill="#232B2A"
   d="M33.283,91.03c-0.234,0.135-0.617,0.135-0.848,0c-0.236-0.135-0.236-0.354,0-0.488"
   id="path962" />
						<path
   d="M32.496,90.577c0.2-0.111,0.525-0.111,0.723,0c0.201,0.113,0.201,0.305,0,0.416c-0.197,0.119-0.522,0.119-0.723,0        C32.295,90.882,32.295,90.69,32.496,90.577z"
   id="path964" />
						<path
   fill="#2B3332"
   d="M32.518,90.61c0.188-0.109,0.495-0.109,0.682,0c0.188,0.104,0.188,0.283,0,0.395        c-0.187,0.105-0.494,0.105-0.682,0C32.331,90.894,32.331,90.714,32.518,90.61z"
   id="path966" />
						<path
   fill="#232B2A"
   d="M33.199,91.005c-0.187,0.105-0.494,0.105-0.682,0c-0.187-0.111-0.187-0.291,0-0.395"
   id="path968" />
					</g>
				</g>
				<g
   id="g986">
					<path
   fill="#A4BCBB"
   d="M32.363,89.815h0.99v0.795l0,0v0.016h-0.001c-0.006,0.064-0.054,0.137-0.143,0.189       c-0.194,0.109-0.511,0.109-0.702,0c-0.092-0.053-0.139-0.125-0.145-0.189l0,0V89.815z"
   id="path974" />
					<path
   fill="#74918E"
   d="M33.309,90.685v0.004V90.7l0,0c-0.004,0.014-0.005,0.025-0.01,0.039       c-0.021,0.025-0.053,0.053-0.089,0.076c-0.194,0.109-0.511,0.109-0.702,0c-0.092-0.053-0.139-0.125-0.145-0.189l0,0v-0.811       h0.945V90.685z"
   id="path976" />
					<path
   fill="#526D6A"
   d="M33.249,90.747v0.004v0.023h-0.003c0,0-0.002,0.006-0.002,0.018c-0.012,0.006-0.023,0.012-0.034,0.023       c-0.194,0.109-0.511,0.109-0.702,0c-0.092-0.053-0.139-0.125-0.145-0.189l0,0v-0.811h0.886V90.747z"
   id="path978" />
					<path
   fill="#3C5652"
   d="M32.867,90.839v0.01v0.02h-0.002c0,0.014-0.001,0.02-0.001,0.027c-0.003,0-0.003,0-0.003,0       c-0.129,0-0.258-0.027-0.354-0.08c-0.092-0.053-0.139-0.125-0.145-0.189l0,0v-0.811h0.504V90.839z"
   id="path980" />
					<path
   fill="#BCCECC"
   d="M32.508,89.593c0.191-0.113,0.508-0.113,0.702,0c0.19,0.111,0.19,0.293,0,0.408       c-0.165,0.09-0.42,0.105-0.613,0.039c-0.032-0.012-0.061-0.025-0.089-0.039C32.313,89.886,32.313,89.704,32.508,89.593z"
   id="path982" />
					<path
   fill="#A4BCBB"
   d="M33.21,90.001c-0.165,0.09-0.42,0.105-0.613,0.039c-0.032-0.012-0.061-0.025-0.089-0.039       c-0.194-0.115-0.194-0.297,0-0.408"
   id="path984" />
				</g>
			</g>
		</g>
		<g
   id="g1058">
			<path
   opacity="0.4"
   fill="#FFC200"
   d="M25.599,90.194c0,1.264,1.022,2.291,2.285,2.291c1.264,0,2.286-1.027,2.286-2.291     c0-1.258-1.022-2.283-2.286-2.283C26.621,87.911,25.599,88.937,25.599,90.194z"
   id="path992" />
			<g
   id="g1056">
				<g
   id="g1000">
					<path
   fill="#FFA300"
   d="M26.867,89.81c0,0.596,0.482,1.078,1.079,1.078s1.081-0.482,1.081-1.078       c0-0.598-0.484-1.449-1.081-1.449S26.867,89.212,26.867,89.81z"
   id="path994" />
					<path
   fill="#FFB600"
   d="M28.095,88.464c0.198,0,0.294,0.051,0.481,0.23c0.237,0.199,0.451,0.779,0.451,1.115       c0,0.596-0.484,1.078-1.081,1.078c-0.197,0-0.382-0.051-0.54-0.148c-0.24-0.193-0.393-0.494-0.393-0.83       C27.014,89.313,27.498,88.464,28.095,88.464z"
   id="path996" />
					<path
   fill="#FFC200"
   d="M28.576,88.694c0.237,0.199,0.451,0.779,0.451,1.115c0,0.596-0.484,1.078-1.081,1.078       c-0.197,0-0.382-0.051-0.54-0.148"
   id="path998" />
				</g>
				<path
   fill="#FFA300"
   d="M27.053,89.087c0.193-0.398,0.522-0.727,0.894-0.727c0.372,0,0.7,0.334,0.896,0.727      c-0.045,0.08-0.122,0.16-0.234,0.227c-0.364,0.207-0.958,0.207-1.322,0C27.17,89.247,27.096,89.167,27.053,89.087z"
   id="path1002" />
				<g
   id="g1040">
					<g
   id="g1020">
						<path
   fill="#232B2A"
   d="M27.258,88.7h1.379v0.117c0,0,0,0,0-0.023v0.014l-0.002,0.023c-0.004,0.096-0.07,0.197-0.2,0.271        c-0.269,0.154-0.706,0.154-0.978,0c-0.127-0.074-0.193-0.176-0.199-0.271v-0.023V88.7z"
   id="path1004" />
						<path
   d="M28.435,89.103c-0.269,0.154-0.706,0.154-0.978,0c-0.127-0.074-0.193-0.176-0.199-0.271v-0.023V88.7h1.177V89.103z"
   id="path1006" />
						<path
   fill="#2D3534"
   d="M27.457,88.429c0.271-0.154,0.709-0.154,0.978,0c0.271,0.154,0.271,0.408,0,0.57        c-0.269,0.154-0.706,0.154-0.978,0C27.189,88.837,27.189,88.583,27.457,88.429z"
   id="path1008" />
						<path
   fill="#C7D8D5"
   d="M27.457,88.429c0.271-0.154,0.709-0.154,0.978,0"
   id="path1010" />
						<path
   fill="#232B2A"
   d="M28.435,88.999c-0.269,0.154-0.706,0.154-0.978,0c-0.268-0.162-0.268-0.416,0-0.57"
   id="path1012" />
						<path
   fill="#90AFAD"
   d="M27.529,88.47c0.23-0.137,0.604-0.137,0.834,0c0.229,0.133,0.229,0.35,0,0.484        c-0.23,0.133-0.604,0.133-0.834,0C27.299,88.819,27.299,88.603,27.529,88.47z"
   id="path1014" />
						<path
   fill="#7A9E9A"
   d="M27.555,88.505c0.217-0.125,0.568-0.125,0.785,0s0.217,0.326,0,0.455        c-0.217,0.121-0.568,0.121-0.785,0C27.338,88.831,27.338,88.63,27.555,88.505z"
   id="path1016" />
						<path
   fill="#6A918B"
   d="M28.34,88.96c-0.217,0.121-0.568,0.121-0.785,0c-0.217-0.129-0.217-0.33,0-0.455"
   id="path1018" />
					</g>
					<g
   id="g1038">
						<path
   fill="#232B2A"
   d="M27.346,88.603h1.199v0.105c0,0,0,0,0-0.02v0.006v0.025c-0.006,0.086-0.062,0.168-0.174,0.234        c-0.233,0.137-0.615,0.137-0.85,0c-0.109-0.066-0.169-0.148-0.174-0.234l-0.002-0.025V88.603z"
   id="path1022" />
						<path
   d="M28.371,88.954c-0.233,0.137-0.615,0.137-0.85,0c-0.109-0.066-0.169-0.148-0.174-0.234l-0.002-0.025v-0.092h1.025        V88.954z"
   id="path1024" />
						<path
   fill="#2D3534"
   d="M27.521,88.372c0.234-0.135,0.616-0.135,0.85,0c0.232,0.133,0.232,0.355,0,0.49        c-0.233,0.137-0.615,0.137-0.85,0C27.29,88.728,27.29,88.505,27.521,88.372z"
   id="path1026" />
						<path
   fill="#414C4A"
   d="M27.521,88.372c0.234-0.135,0.616-0.135,0.85,0"
   id="path1028" />
						<path
   fill="#232B2A"
   d="M28.371,88.862c-0.233,0.137-0.615,0.137-0.85,0c-0.231-0.135-0.231-0.357,0-0.49"
   id="path1030" />
						<path
   d="M27.586,88.409c0.198-0.115,0.521-0.115,0.723,0c0.199,0.113,0.199,0.299,0,0.414c-0.201,0.115-0.524,0.115-0.723,0        C27.385,88.708,27.385,88.522,27.586,88.409z"
   id="path1032" />
						<path
   fill="#2B3332"
   d="M27.605,88.437c0.188-0.104,0.494-0.104,0.681,0c0.188,0.109,0.188,0.285,0,0.395        c-0.187,0.107-0.493,0.107-0.681,0C27.419,88.722,27.419,88.546,27.605,88.437z"
   id="path1034" />
						<path
   fill="#232B2A"
   d="M28.286,88.831c-0.187,0.107-0.493,0.107-0.681,0c-0.187-0.109-0.187-0.285,0-0.395"
   id="path1036" />
					</g>
				</g>
				<g
   id="g1054">
					<path
   fill="#A4BCBB"
   d="M27.45,87.642h0.991v0.799l0,0v0.018l0,0c-0.007,0.064-0.056,0.133-0.146,0.184       c-0.189,0.113-0.508,0.113-0.701,0c-0.088-0.051-0.137-0.119-0.143-0.184H27.45V87.642z"
   id="path1042" />
					<path
   fill="#74918E"
   d="M28.396,88.515v0.002v0.012h-0.002c0,0.018-0.004,0.029-0.006,0.045       c-0.025,0.021-0.053,0.045-0.094,0.068c-0.189,0.113-0.508,0.113-0.701,0c-0.088-0.051-0.137-0.119-0.143-0.184H27.45v-0.816       h0.946V88.515z"
   id="path1044" />
					<path
   fill="#526D6A"
   d="M28.336,88.577v0.002v0.021l0,0c-0.002,0.002-0.002,0.012-0.002,0.018       c-0.014,0.012-0.025,0.018-0.039,0.023c-0.189,0.113-0.508,0.113-0.701,0c-0.088-0.051-0.137-0.119-0.143-0.184H27.45v-0.816       h0.886V88.577z"
   id="path1046" />
					<path
   fill="#3C5652"
   d="M27.953,88.669c0.002,0.002,0.002,0.008,0,0.008V88.7l0,0c0,0.008-0.001,0.02-0.004,0.027       c0,0,0,0-0.002,0c-0.129,0-0.254-0.033-0.354-0.086c-0.088-0.051-0.137-0.119-0.143-0.184H27.45v-0.816h0.503V88.669z"
   id="path1048" />
					<path
   fill="#BCCECC"
   d="M27.594,87.421c0.193-0.109,0.512-0.109,0.701,0c0.196,0.115,0.196,0.295,0,0.406       c-0.163,0.09-0.418,0.107-0.607,0.043c-0.033-0.012-0.063-0.029-0.094-0.043C27.402,87.716,27.402,87.536,27.594,87.421z"
   id="path1050" />
					<path
   fill="#A4BCBB"
   d="M28.295,87.827c-0.163,0.09-0.418,0.107-0.607,0.043c-0.033-0.012-0.063-0.029-0.094-0.043       c-0.191-0.111-0.191-0.291,0-0.406"
   id="path1052" />
				</g>
			</g>
		</g>
		<g
   id="g1126">
			<circle
   opacity="0.4"
   fill="#FFC200"
   cx="23.833"
   cy="86.931"
   r="2.286"
   id="circle1060" />
			<g
   id="g1124">
				<g
   id="g1068">
					<path
   fill="#FFA300"
   d="M22.812,86.54c0,0.6,0.483,1.08,1.083,1.08c0.596,0,1.08-0.48,1.08-1.08       c0-0.596-0.484-1.443-1.08-1.443C23.295,85.097,22.812,85.944,22.812,86.54z"
   id="path1062" />
					<path
   fill="#FFB600"
   d="M24.043,85.196c0.197,0,0.291,0.055,0.478,0.232c0.239,0.199,0.454,0.777,0.454,1.111       c0,0.6-0.484,1.08-1.08,1.08c-0.199,0-0.384-0.051-0.541-0.143c-0.24-0.199-0.393-0.496-0.393-0.832       C22.961,86.052,23.445,85.196,24.043,85.196z"
   id="path1064" />
					<path
   fill="#FFC200"
   d="M24.521,85.429c0.239,0.199,0.454,0.777,0.454,1.111c0,0.6-0.484,1.08-1.08,1.08       c-0.199,0-0.384-0.051-0.541-0.143"
   id="path1066" />
				</g>
				<path
   fill="#FFA300"
   d="M23,85.815c0.195-0.393,0.523-0.719,0.895-0.719c0.372,0,0.697,0.332,0.895,0.719      c-0.044,0.088-0.121,0.166-0.236,0.23c-0.361,0.209-0.957,0.209-1.319,0C23.117,85.981,23.04,85.903,23,85.815z"
   id="path1070" />
				<g
   id="g1108">
					<g
   id="g1088">
						<path
   fill="#232B2A"
   d="M23.202,85.435h1.382v0.115c0,0.004,0,0.004,0-0.02v0.012l-0.001,0.023        c-0.006,0.094-0.071,0.193-0.2,0.27c-0.27,0.154-0.71,0.154-0.98,0c-0.127-0.076-0.193-0.176-0.199-0.27l-0.001-0.023V85.435z        "
   id="path1072" />
						<path
   d="M24.383,85.835c-0.27,0.154-0.71,0.154-0.98,0c-0.127-0.076-0.193-0.176-0.199-0.27l-0.001-0.023v-0.107h1.181V85.835        z"
   id="path1074" />
						<path
   fill="#2D3534"
   d="M23.402,85.161c0.271-0.154,0.711-0.154,0.98,0s0.27,0.41,0,0.564s-0.71,0.154-0.98,0        C23.135,85.571,23.135,85.315,23.402,85.161z"
   id="path1076" />
						<path
   fill="#C7D8D5"
   d="M23.402,85.161c0.271-0.154,0.711-0.154,0.98,0"
   id="path1078" />
						<path
   fill="#232B2A"
   d="M24.383,85.726c-0.27,0.154-0.71,0.154-0.98,0c-0.268-0.154-0.268-0.41,0-0.564"
   id="path1080" />
						<path
   fill="#90AFAD"
   d="M23.475,85.202c0.23-0.131,0.606-0.131,0.837,0c0.229,0.135,0.229,0.352,0,0.482        c-0.23,0.131-0.606,0.131-0.837,0C23.246,85.554,23.246,85.337,23.475,85.202z"
   id="path1082" />
						<path
   fill="#7A9E9A"
   d="M23.502,85.239c0.215-0.125,0.568-0.125,0.785,0c0.215,0.123,0.215,0.326,0,0.453        c-0.217,0.123-0.57,0.123-0.785,0C23.285,85.565,23.285,85.362,23.502,85.239z"
   id="path1084" />
						<path
   fill="#6A918B"
   d="M24.287,85.692c-0.217,0.123-0.57,0.123-0.785,0c-0.217-0.127-0.217-0.33,0-0.453"
   id="path1086" />
					</g>
					<g
   id="g1106">
						<path
   fill="#232B2A"
   d="M23.293,85.339h1.199v0.102c0,0,0,0,0-0.018v0.006v0.023c-0.006,0.086-0.062,0.17-0.174,0.234        c-0.234,0.137-0.615,0.137-0.85,0c-0.112-0.064-0.168-0.148-0.174-0.234l-0.002-0.023V85.339z"
   id="path1090" />
						<path
   d="M24.318,85.687c-0.234,0.137-0.615,0.137-0.85,0c-0.112-0.064-0.168-0.148-0.174-0.234l-0.002-0.023v-0.09h1.025        V85.687z"
   id="path1092" />
						<path
   fill="#2D3534"
   d="M23.469,85.104c0.234-0.137,0.615-0.137,0.85,0c0.233,0.135,0.233,0.357,0,0.49        c-0.234,0.137-0.615,0.137-0.85,0C23.236,85.462,23.236,85.239,23.469,85.104z"
   id="path1094" />
						<path
   fill="#414C4A"
   d="M23.469,85.104c0.234-0.137,0.615-0.137,0.85,0"
   id="path1096" />
						<path
   fill="#232B2A"
   d="M24.318,85.595c-0.234,0.137-0.615,0.137-0.85,0c-0.232-0.133-0.232-0.355,0-0.49"
   id="path1098" />
						<path
   d="M23.531,85.144c0.197-0.119,0.524-0.119,0.725,0c0.197,0.113,0.197,0.303,0,0.416c-0.2,0.113-0.527,0.113-0.725,0        C23.331,85.446,23.331,85.257,23.531,85.144z"
   id="path1100" />
						<path
   fill="#2B3332"
   d="M23.553,85.171c0.188-0.105,0.492-0.105,0.682,0c0.188,0.109,0.188,0.281,0,0.395        c-0.189,0.107-0.493,0.107-0.682,0C23.363,85.452,23.363,85.28,23.553,85.171z"
   id="path1102" />
						<path
   fill="#232B2A"
   d="M24.234,85.565c-0.189,0.107-0.493,0.107-0.682,0c-0.189-0.113-0.189-0.285,0-0.395"
   id="path1104" />
					</g>
				</g>
				<g
   id="g1122">
					<path
   fill="#A4BCBB"
   d="M23.398,84.378h0.992v0.795v0.006v0.006l0,0c-0.008,0.074-0.057,0.141-0.146,0.189       c-0.194,0.113-0.508,0.113-0.702,0c-0.089-0.049-0.14-0.115-0.144-0.189l0,0V84.378z"
   id="path1110" />
					<path
   fill="#74918E"
   d="M24.341,85.247v0.004v0.018l0,0c-0.001,0.012-0.003,0.023-0.007,0.035       c-0.022,0.029-0.051,0.053-0.09,0.07c-0.194,0.113-0.508,0.113-0.702,0c-0.089-0.049-0.14-0.115-0.144-0.189l0,0v-0.807h0.942       V85.247z"
   id="path1112" />
					<path
   fill="#526D6A"
   d="M24.283,85.31c0,0,0,0,0,0.006v0.018l0,0c-0.002,0.006-0.002,0.016-0.003,0.018       c-0.013,0.012-0.024,0.018-0.036,0.023c-0.194,0.113-0.508,0.113-0.702,0c-0.089-0.049-0.14-0.115-0.144-0.189l0,0v-0.807       h0.885V85.31z"
   id="path1114" />
					<path
   fill="#3C5652"
   d="M23.901,85.401c0,0.004,0,0.004,0,0.004v0.029l0,0c-0.001,0.006-0.001,0.018-0.005,0.027h-0.001       c-0.13,0-0.255-0.033-0.354-0.088c-0.089-0.049-0.14-0.115-0.144-0.189l0,0v-0.807h0.503V85.401z"
   id="path1116" />
					<path
   fill="#BCCECC"
   d="M23.542,84.157c0.194-0.115,0.508-0.115,0.702,0c0.193,0.107,0.193,0.295,0,0.398       c-0.166,0.102-0.42,0.115-0.609,0.047c-0.033-0.012-0.064-0.029-0.093-0.047C23.35,84.452,23.35,84.265,23.542,84.157z"
   id="path1118" />
					<path
   fill="#A4BCBB"
   d="M24.244,84.556c-0.166,0.102-0.42,0.115-0.609,0.047c-0.033-0.012-0.064-0.029-0.093-0.047       c-0.192-0.104-0.192-0.291,0-0.398"
   id="path1120" />
				</g>
			</g>
		</g>
		<g
   id="g1194">
			<path
   opacity="0.4"
   fill="#FFC200"
   d="M18.568,83.64c-0.172,1.252,0.703,2.404,1.953,2.572c1.25,0.172,2.404-0.701,2.576-1.953     c0.173-1.25-0.705-2.402-1.953-2.572C19.891,81.515,18.74,82.388,18.568,83.64z"
   id="path1128" />
			<g
   id="g1192">
				<g
   id="g1136">
					<path
   fill="#FFA300"
   d="M19.876,83.427c-0.08,0.594,0.331,1.141,0.922,1.217c0.593,0.078,1.138-0.332,1.22-0.922       c0.08-0.592-0.283-1.5-0.873-1.584C20.553,82.062,19.956,82.839,19.876,83.427z"
   id="path1130" />
					<path
   fill="#FFB600"
   d="M21.277,82.263c0.195,0.027,0.282,0.092,0.444,0.297c0.208,0.229,0.34,0.832,0.296,1.162       c-0.082,0.59-0.627,1-1.22,0.922c-0.194-0.025-0.37-0.104-0.515-0.219c-0.211-0.227-0.321-0.543-0.271-0.873       C20.09,82.958,20.686,82.185,21.277,82.263z"
   id="path1132" />
					<path
   fill="#FFC200"
   d="M21.722,82.56c0.208,0.229,0.34,0.832,0.296,1.162c-0.082,0.59-0.627,1-1.22,0.922       c-0.194-0.025-0.37-0.104-0.515-0.219"
   id="path1134" />
				</g>
				<path
   fill="#FFA300"
   d="M20.16,82.737c0.244-0.367,0.615-0.646,0.984-0.6c0.367,0.053,0.648,0.426,0.787,0.844      c-0.055,0.076-0.141,0.143-0.264,0.193c-0.387,0.156-0.977,0.08-1.31-0.182C20.254,82.915,20.191,82.827,20.16,82.737z"
   id="path1138" />
				<g
   id="g1176">
					<g
   id="g1156">
						<path
   fill="#232B2A"
   d="M20.412,82.378l1.371,0.191l-0.018,0.115c0,0,0,0,0.002-0.021l-0.002,0.01l-0.004,0.023        c-0.018,0.098-0.098,0.188-0.232,0.246c-0.289,0.115-0.725,0.057-0.971-0.137c-0.117-0.092-0.169-0.199-0.163-0.291        l0.001-0.033L20.412,82.378z"
   id="path1140" />
						<path
   d="M21.529,82.942c-0.289,0.115-0.725,0.057-0.971-0.137c-0.117-0.092-0.169-0.199-0.163-0.291l0.001-0.033l0.016-0.104        l1.168,0.164L21.529,82.942z"
   id="path1142" />
						<path
   fill="#2D3534"
   d="M20.649,82.144c0.288-0.119,0.724-0.059,0.968,0.131c0.247,0.189,0.213,0.439-0.075,0.564        c-0.288,0.109-0.725,0.053-0.97-0.137C20.326,82.509,20.359,82.257,20.649,82.144z"
   id="path1144" />
						<path
   fill="#C7D8D5"
   d="M20.649,82.144c0.288-0.119,0.724-0.059,0.968,0.131"
   id="path1146" />
						<path
   fill="#232B2A"
   d="M21.542,82.839c-0.288,0.109-0.725,0.053-0.97-0.137c-0.246-0.193-0.213-0.445,0.077-0.559"
   id="path1148" />
						<path
   fill="#90AFAD"
   d="M20.713,82.19c0.247-0.094,0.618-0.047,0.829,0.113c0.211,0.166,0.18,0.381-0.065,0.479        c-0.248,0.102-0.617,0.051-0.828-0.109C20.441,82.507,20.469,82.29,20.713,82.19z"
   id="path1150" />
						<path
   fill="#7A9E9A"
   d="M20.734,82.228c0.231-0.092,0.582-0.043,0.777,0.113c0.198,0.15,0.172,0.35-0.062,0.447        c-0.229,0.09-0.578,0.045-0.775-0.109C20.478,82.524,20.502,82.321,20.734,82.228z"
   id="path1152" />
						<path
   fill="#6A918B"
   d="M21.449,82.788c-0.229,0.09-0.578,0.045-0.775-0.109c-0.196-0.154-0.172-0.357,0.061-0.451"
   id="path1154" />
					</g>
					<g
   id="g1174">
						<path
   fill="#232B2A"
   d="M20.516,82.302l1.187,0.162l-0.012,0.105c0,0-0.001,0,0.001-0.021L21.69,82.56l-0.005,0.021        c-0.013,0.08-0.082,0.156-0.203,0.207c-0.25,0.096-0.628,0.051-0.84-0.115c-0.104-0.08-0.147-0.17-0.142-0.256l0.001-0.023        L20.516,82.302z"
   id="path1158" />
						<path
   d="M21.482,82.788c-0.25,0.096-0.628,0.051-0.84-0.115c-0.104-0.08-0.147-0.17-0.142-0.256l0.001-0.023l0.014-0.092        l1.015,0.139L21.482,82.788z"
   id="path1160" />
						<path
   fill="#2D3534"
   d="M20.721,82.097c0.25-0.107,0.63-0.055,0.842,0.113c0.213,0.166,0.185,0.383-0.066,0.48        c-0.25,0.104-0.63,0.059-0.842-0.109C20.443,82.411,20.47,82.198,20.721,82.097z"
   id="path1162" />
						<path
   fill="#414C4A"
   d="M20.721,82.097c0.25-0.107,0.63-0.055,0.842,0.113"
   id="path1164" />
						<path
   fill="#232B2A"
   d="M21.496,82.69c-0.25,0.104-0.63,0.059-0.842-0.109c-0.211-0.17-0.185-0.383,0.066-0.484"
   id="path1166" />
						<path
   d="M20.779,82.136c0.212-0.086,0.534-0.039,0.717,0.104c0.183,0.137,0.156,0.324-0.057,0.41        c-0.214,0.088-0.536,0.041-0.719-0.102C20.539,82.411,20.564,82.224,20.779,82.136z"
   id="path1168" />
						<path
   fill="#2B3332"
   d="M20.795,82.173c0.201-0.082,0.504-0.041,0.676,0.09c0.171,0.131,0.146,0.309-0.052,0.389        c-0.204,0.084-0.505,0.039-0.676-0.092C20.57,82.429,20.596,82.251,20.795,82.173z"
   id="path1170" />
						<path
   fill="#232B2A"
   d="M21.419,82.651c-0.204,0.084-0.505,0.039-0.676-0.092c-0.173-0.131-0.147-0.309,0.052-0.387"
   id="path1172" />
					</g>
				</g>
				<g
   id="g1190">
					<path
   fill="#A4BCBB"
   d="M20.75,81.362l0.98,0.137l-0.107,0.787l0,0l-0.002,0.012l0,0c-0.016,0.068-0.073,0.131-0.17,0.172       c-0.205,0.078-0.518,0.039-0.695-0.1c-0.081-0.066-0.119-0.131-0.115-0.203l0,0L20.75,81.362z"
   id="path1178" />
					<path
   fill="#74918E"
   d="M21.568,82.353c0,0.002,0,0.002,0,0.002l-0.004,0.016l0,0c-0.002,0.012-0.008,0.023-0.014,0.035       c-0.027,0.023-0.058,0.047-0.1,0.064c-0.205,0.078-0.518,0.039-0.695-0.1c-0.081-0.066-0.119-0.131-0.115-0.203l0,0       l0.109-0.805l0.935,0.129L21.568,82.353z"
   id="path1180" />
					<path
   fill="#526D6A"
   d="M21.499,82.405v0.006l-0.001,0.018h-0.002c-0.003,0.006-0.003,0.016-0.004,0.023       c-0.014,0.006-0.025,0.006-0.041,0.018c-0.205,0.078-0.518,0.039-0.695-0.1c-0.081-0.066-0.119-0.131-0.115-0.203l0,0       l0.109-0.805l0.875,0.119L21.499,82.405z"
   id="path1182" />
					<path
   fill="#3C5652"
   d="M21.109,82.444c0,0,0,0.008-0.002,0.008l-0.002,0.023l0,0c-0.002,0.006-0.006,0.02-0.006,0.027       c-0.002,0-0.002,0-0.004,0c-0.127-0.021-0.248-0.062-0.34-0.133c-0.081-0.066-0.119-0.131-0.115-0.203l0,0l0.109-0.805       l0.498,0.068L21.109,82.444z"
   id="path1184" />
					<path
   fill="#BCCECC"
   d="M20.924,81.163c0.207-0.082,0.518-0.041,0.695,0.096c0.176,0.131,0.15,0.318-0.055,0.398       c-0.177,0.076-0.432,0.053-0.611-0.041c-0.031-0.02-0.061-0.037-0.086-0.051C20.691,81.425,20.715,81.247,20.924,81.163z"
   id="path1186" />
					<path
   fill="#A4BCBB"
   d="M21.564,81.657c-0.177,0.076-0.432,0.053-0.611-0.041c-0.031-0.02-0.061-0.037-0.086-0.051       c-0.176-0.141-0.152-0.318,0.057-0.402"
   id="path1188" />
				</g>
			</g>
		</g>
		<path
   fill="#547277"
   d="M43.887,88.448c0,0-0.51,0.232-1.44,0.512c-0.925,0.287-2.288,0.59-3.934,0.727    c-0.823,0.074-1.72,0.074-2.659,0.006c-0.943-0.053-1.92-0.242-2.916-0.469c-0.998-0.238-1.992-0.605-2.978-1.039    c-0.961-0.473-1.928-0.992-2.81-1.645c-0.908-0.602-1.749-1.314-2.541-2.051c-0.783-0.738-1.512-1.52-2.166-2.322    c-0.346-0.383-0.637-0.801-0.941-1.189c-0.307-0.396-0.609-0.781-0.867-1.174c-0.268-0.398-0.529-0.781-0.779-1.152    c-0.233-0.387-0.459-0.748-0.673-1.105c-0.442-0.705-0.798-1.383-1.13-1.971c-0.34-0.588-0.604-1.117-0.816-1.553    c-0.439-0.867-0.693-1.369-0.693-1.369s0.204,0.52,0.562,1.43c0.178,0.453,0.405,1.004,0.701,1.613    c0.287,0.621,0.594,1.328,1.012,2.053c0.202,0.373,0.414,0.754,0.63,1.158c0.241,0.379,0.487,0.781,0.738,1.188    c0.243,0.422,0.532,0.82,0.823,1.242c0.289,0.414,0.594,0.836,0.936,1.238c0.656,0.822,1.393,1.641,2.189,2.414    c0.803,0.771,1.656,1.518,2.596,2.158c0.926,0.656,1.938,1.186,2.947,1.664c1.029,0.436,2.07,0.805,3.112,1.035    c1.038,0.232,2.062,0.369,3.035,0.387c0.972,0.023,1.894-0.018,2.73-0.137c1.68-0.205,3.023-0.652,3.938-1    C43.406,88.739,43.887,88.448,43.887,88.448z"
   id="path1196" />
	</g>
</g>
</svg>
